<svg width="1934" height="522" viewBox="0 0 1934 522" fill="none" xmlns="http://www.w3.org/2000/svg">
<path d="M0 207.333L6.4 214.667C32.5333 244.933 68.9333 280.267 96 302C101.467 306.4 106.267 310.267 106.667 310.667C107.867 311.867 130.933 329.867 136.8 334C139.867 336.133 146.133 340.667 150.8 344C155.467 347.2 160 350.4 160.667 350.933C161.467 351.6 168.667 356.4 176.667 361.6C257.867 414.267 347.867 456.667 441.333 486.4C448.267 488.667 455.2 490.667 456.667 491.067C458.133 491.467 464.4 493.2 470.667 495.067C498.267 503.2 538.133 511.6 568.667 515.867C609.467 521.6 616.267 522 662.667 521.867C702.8 521.867 711.467 521.467 730.533 518.933C803.2 508.933 859.2 491.333 927.333 457.067C963.6 438.933 1018.67 404.133 1044.67 382.933C1045.47 382.4 1051.07 378 1057.33 373.333C1063.6 368.533 1069.6 364 1070.67 363.067C1126.8 317.6 1207.2 256 1210.13 256C1210.67 256 1214.13 253.733 1217.87 250.933C1231.2 240.933 1260.13 223.733 1286 210.4C1372.27 165.733 1474.93 141.733 1568 144.4C1634.27 146.267 1682.67 158 1738 185.6C1748.27 190.8 1758.53 196 1760.67 197.333C1762.93 198.667 1773.73 204.667 1784.67 210.8C1847.2 245.2 1881.73 259.733 1920.53 268.133C1927.07 269.467 1932.67 270.667 1932.93 270.667C1933.07 270.667 1933.33 209.733 1933.33 135.333V0H0V207.333Z" fill="url(#paint0_linear_27_23)"/>
<defs>
<linearGradient id="paint0_linear_27_23" x1="713" y1="-221.5" x2="897.5" y2="400" gradientUnits="userSpaceOnUse">
<stop stop-color="#DD3FEB"/>
<stop offset="0.526" stop-color="#413EEB"/>
<stop offset="1" stop-color="#DD3FEB"/>
</linearGradient>
</defs>
</svg>
