<svg width="385" height="381" viewBox="0 0 385 381" fill="none" xmlns="http://www.w3.org/2000/svg">
<path d="M285.07 74.5345L270.493 55.2235C228.004 -1.0628 142.167 3.13308 105.371 63.295L100.208 71.7359C93.3387 82.9674 84.319 92.7319 73.6666 100.469L56.3975 113.012C-2.77897 155.994 2.99694 245.965 67.1835 281.027C82.0186 289.131 94.5473 300.876 103.59 315.158L106.096 319.115C143.089 377.54 226.797 381.682 269.377 327.194L285.699 306.309C292.388 297.749 300.428 290.336 309.502 284.362L324.67 274.375C385.063 234.613 384.594 145.875 323.785 106.753L310.778 98.3851C300.871 92.0112 292.167 83.9369 285.07 74.5345Z" stroke="url(#paint0_linear_63_3)" stroke-width="30"/>
<defs>
<linearGradient id="paint0_linear_63_3" x1="191" y1="-62" x2="191" y2="439" gradientUnits="userSpaceOnUse">
<stop stop-color="#DD3FEB"/>
<stop offset="1" stop-color="#3A37EC"/>
</linearGradient>
</defs>
</svg>
