<svg width="500" height="500" viewBox="0 0 500 500" fill="none" xmlns="http://www.w3.org/2000/svg">
<g clip-path="url(#clip0_87_2)">
<path fill-rule="evenodd" clip-rule="evenodd" d="M148.972 207.559C148.972 207.559 158.31 218.514 162.318 222.793C166.325 227.073 172.174 230.787 172.174 230.787C172.174 230.787 167.016 302.649 166.575 310.821C166.134 318.993 167.035 327.634 167.035 327.634C167.035 327.634 171.023 314.246 173.804 308.67C176.565 303.096 181.244 298.362 188.569 300.362C195.875 302.36 204.637 304.308 205.711 298.13C206.766 291.952 208.472 284.157 208.472 284.157L237.886 258.298L284.251 284.104L299.84 298.554L309.792 322.538C309.792 322.538 311.997 308.761 311.23 303.095C310.463 297.427 307.28 277.031 307.28 277.031L305.918 274.197C305.918 274.197 302.678 242.814 304.346 235.928C305.995 229.042 315.832 214.721 315.832 214.721L332.993 195.715C332.993 195.715 333.645 191.918 330.232 189.709C326.838 187.502 324.25 187.408 322.716 185.159C321.182 182.91 318.881 164.611 303.445 162.705C287.99 160.799 283.657 159.727 283.657 159.727C283.657 159.727 278.115 149.931 274.242 155.146C274.242 155.146 264.981 152.536 262.699 150.893C260.436 149.25 258.039 148.159 255.413 148.745C252.767 149.334 225.481 151.915 225.481 151.915L219.575 149.056C219.575 149.056 213.765 156.816 210.985 158.243C208.224 159.668 205.424 159.486 205.424 159.486C205.424 159.486 203.43 156.924 200.285 158.895C197.14 160.866 195.606 163.972 195.606 163.972C195.606 163.972 181.858 166.022 177.083 167.301C172.308 168.58 163.009 171.071 163.009 171.071L148.973 207.561L148.972 207.559ZM107.88 474.059C107.88 474.059 106.058 432.724 108.225 426.331C108.225 426.331 119.404 424.692 124.293 424.573C129.163 424.454 143.89 426.03 143.89 426.03C143.89 426.03 144.695 451.747 144.753 457.814C144.81 463.879 144.964 473.38 144.964 473.38C144.964 473.38 131.58 469.867 125.847 471.334C120.114 472.801 107.88 474.059 107.88 474.059ZM304.71 467.624C304.71 467.624 316.253 463.615 322.945 463.952C329.637 464.289 346.319 467.781 346.319 467.781C346.319 467.781 347.163 457.444 341.813 455.197C336.482 452.948 317.192 452.998 312.821 454.422C308.449 455.845 305.707 457.434 305.707 457.434L304.71 467.624Z" fill="url(#paint0_angular_87_2)"/>
<path fill-rule="evenodd" clip-rule="evenodd" d="M193.438 208.992C193.438 208.992 192.843 179.933 194.032 172.775C195.221 165.617 196.218 161.216 199.574 159.169C202.949 157.121 206.074 158.699 206.074 158.699L208.701 185.003L193.438 208.992ZM274.471 207.817C274.471 207.817 273.915 165.496 273.819 161.843C273.742 158.19 273.953 154.668 276.676 153.776C279.399 152.884 282.026 155.314 284.097 164.957C286.168 174.6 287.759 209.895 287.759 209.895L274.471 207.816V207.817ZM220.417 86.8637C220.417 86.8637 222.603 86.6737 223.159 90.1047C223.715 93.5347 222.085 96.8487 220.417 95.8287C218.749 94.8107 218.365 88.6147 218.365 88.6147L220.417 86.8637ZM255.411 85.7647C255.411 85.7647 252.477 89.7147 253.398 92.9057C254.318 96.0947 256.696 94.8597 258 92.9367C259.304 91.0117 258.345 85.3457 258.345 85.3457L255.411 85.7647ZM216.007 231.791C216.007 231.791 213.955 235.682 216.007 237.467C218.078 239.252 219.401 236.125 219.343 235.02C219.266 233.914 216.007 231.791 216.007 231.791ZM245.383 230.903C245.383 230.903 243.197 234.742 245.057 236.631C246.898 238.52 248.528 234.853 248.528 234.853L247.588 231.047L245.383 230.903Z" fill="white"/>
<path fill-rule="evenodd" clip-rule="evenodd" d="M208.931 117.76C208.931 117.76 199.746 120.358 195.7 113.31C195.7 113.31 190.925 115.897 188.356 113.793C185.767 111.691 182.872 106.76 182.872 106.76C182.872 106.76 169.545 114.075 164.752 105.33C159.958 96.5831 163.41 85.7431 166.171 79.9331C168.932 74.1251 175.989 67.1781 175.989 67.1781C175.989 67.1781 172.787 59.8611 176.718 54.7781C176.718 54.7781 164.868 43.0121 175.203 32.4871C185.557 21.9601 200.552 19.6921 207.417 21.0111C207.417 21.0111 214.282 11.9701 220.763 15.5631C220.763 15.5631 222.009 12.1351 224.387 12.7191C226.765 13.3041 227.532 12.4311 228.356 10.8491C229.161 9.26512 231.865 8.05112 231.865 8.05112C231.865 8.05112 238.979 -0.0768765 247.857 1.18112C256.735 2.44112 263.523 16.6781 263.523 16.6781C263.523 16.6781 273.647 10.7891 278.939 12.8681C284.231 14.9481 282.18 23.1801 281.815 23.7551C281.47 24.3321 286.053 23.8111 287.031 27.4621C288.028 31.1151 286.302 33.0041 290.272 33.8821C294.222 34.7581 307.146 42.5091 311.288 53.4941C315.411 64.4771 313.052 68.1761 312.189 70.2661C311.326 72.3561 308.833 73.6351 308.833 73.6351C308.833 73.6351 313.531 79.3401 312.342 83.1341C311.153 86.9291 308.986 87.9721 308.986 87.9721C308.986 87.9721 311.843 93.9101 308.909 97.9601C305.994 102.01 299.341 102.374 299.341 102.374C299.341 102.374 300.913 110.922 296.733 115.166C292.572 119.407 282.985 115.034 282.985 115.034L272.477 117.166L208.932 117.76H208.931ZM173.189 307.123C173.189 307.123 169.757 292.845 173.266 287.896C176.756 282.947 184.944 282.253 184.944 282.253C184.944 282.253 186.114 277.262 188.415 275.291C188.415 275.291 187.897 233.85 191.962 215.653C196.008 197.456 201.108 187.416 210.312 181.959C219.535 176.504 235.22 174.49 248.623 178.448C262.026 182.404 270.099 187.146 274.145 224.702C278.191 262.258 280.799 271.983 281.968 274.66C283.138 277.337 284.25 276.969 284.25 276.969C284.25 276.969 286.762 276.332 288.967 277.531C291.191 278.728 291.92 282.944 291.92 282.944C291.92 282.944 297.596 280.919 300.453 284.629C303.31 288.337 302.217 298.765 302.217 298.765C302.217 298.765 294.509 294.081 290.329 294.431C286.149 294.781 281.547 302.567 277.52 303.844C273.493 305.121 263.695 300.776 261.566 296.036C259.438 291.298 259.054 278.859 259.054 278.859C259.054 278.859 257.865 281.772 253.512 283.463C249.179 285.152 246.916 283.87 246.916 283.87L253.857 277.329L245.248 277.438L224.213 278.284L214.741 281.665C214.741 281.665 217.33 286.372 220.11 287.412C220.11 287.412 215.642 289.057 211.635 286.806C207.628 284.555 207.052 281.537 207.052 281.537C207.052 281.537 209.487 289.309 206.457 295.623C203.427 301.939 202.986 303.605 194.435 301.573C185.902 299.541 181.396 299.203 178.769 302.407C176.161 305.609 173.189 307.124 173.189 307.124V307.123ZM356.405 473.992C356.405 473.992 356.808 436.041 357.287 433.339C357.287 433.339 367.335 429.245 372.224 429.377C377.114 429.509 392.166 434.311 392.166 434.311C392.166 434.311 393.202 470.743 392.761 473.437C392.761 473.437 379.818 468.501 374.085 468.873C368.371 469.245 356.406 473.991 356.406 473.991L356.405 473.992Z" fill="#BC20C9"/>
<path fill-rule="evenodd" clip-rule="evenodd" d="M205.998 215.605C205.998 215.605 204.617 233.056 205.116 244.011C205.595 254.964 207.571 266.281 217.062 270.465L223.581 273.454C223.581 273.454 225.978 286.184 221.414 292.368C221.414 292.368 227.78 299.227 233.456 298.613C239.113 297.999 248.067 293.116 248.067 293.116C248.067 293.116 244.846 276.723 247.741 270.38C247.741 270.38 258.268 263.339 259.898 253.583C261.547 243.825 258.863 214.255 258.863 214.255C258.863 214.255 256.984 216.556 254.338 217.467C254.338 217.467 253.59 210.016 253.514 209.63C253.418 209.245 250.293 216.959 250.293 216.959C250.293 216.959 244.31 219.676 236.104 220.393C227.916 221.11 213.094 217.973 213.094 217.973L210.812 219.139L206.9 212.901L205.998 215.605ZM202.508 93.7162C202.508 93.7162 202.911 108.949 208.932 117.759C214.953 126.568 228.279 132.574 228.279 132.574C228.279 132.574 234.261 143.91 223.773 152.646C223.773 152.646 229.545 163.942 240.704 164.069C251.864 164.197 259.284 151.126 259.284 151.126C259.284 151.126 253.877 149.602 254.184 145.193C254.472 140.787 254.663 132.277 254.663 132.277C254.663 132.277 269.025 125.533 273.857 114.27C278.689 103.007 279.629 95.0092 279.629 95.0092L278.9 89.1182C278.9 89.1182 273.934 82.2902 273.377 76.9522C272.821 71.6142 274.278 61.9822 274.278 61.9822L268.065 54.5882L259.877 50.6782L255.774 40.7822C255.774 40.7822 242.237 57.5232 235.008 61.5162C227.779 65.5082 222.966 61.1152 222.966 61.1152L216.562 63.1232C216.562 63.1232 216.715 69.7422 213.686 72.8252C210.676 75.9082 205.652 75.5332 205.652 75.5332L202.508 93.7162ZM270.387 207.25C270.387 207.25 300.415 211.004 308.315 211.091C316.234 211.177 319.149 210.121 319.149 210.121L332.188 196.144L350.845 211.244C350.845 211.244 367.738 218.089 367.987 227.987C368.256 237.885 360.777 244.447 347.144 246.075C333.491 247.705 320.107 244.886 320.107 244.886L275.238 231.531L270.387 207.25ZM108.264 181.849C108.264 181.849 104.506 184.973 106.021 188.984C107.536 192.995 108.399 195.576 106.443 200.608C104.506 205.64 105.446 212.623 105.446 212.623C105.446 212.623 89.186 246.956 93.443 260.723C97.7 274.489 103.011 279.313 114.459 274.726C125.887 270.139 165.483 226.998 165.483 226.998L149.625 208.606L150.066 203.208L153.843 194.39C153.843 194.39 134.189 192.143 128.475 191.24C122.78 190.339 108.265 181.85 108.265 181.85L108.264 181.849Z" fill="#FCBA9A"/>
<path fill-rule="evenodd" clip-rule="evenodd" d="M173.285 176.701C173.285 176.701 177.772 172.646 179.114 177.328C180.456 182.01 173.323 194.978 170.37 197.212C167.417 199.446 166.228 194.675 166.228 194.675C166.228 194.675 136.603 196.031 121.915 188.779C107.227 181.529 98.119 176.969 100.535 167.948C102.932 158.924 110.18 154.324 120.17 153.189C130.16 152.054 152.115 163.538 158.52 167.214C164.924 170.89 173.285 176.701 173.285 176.701Z" fill="#BC20C9"/>
<path fill-rule="evenodd" clip-rule="evenodd" d="M199.938 73.2002C199.938 73.2002 201.606 75.4192 204.329 76.5212C205.901 77.1622 207.819 77.4212 209.986 76.7292C212.249 75.9902 214.109 74.2072 215.47 72.0012C217.081 69.3992 217.982 66.2252 218.27 63.7642C219.094 63.9002 220.111 63.9272 221.127 63.5942C221.875 63.3462 222.642 62.9142 223.313 62.1822C224.387 63.4752 226.208 64.9862 228.835 65.1052C230.81 65.1932 233.284 64.5152 236.275 62.1842C239.017 60.0422 242.085 57.1162 245 54.1122C249.065 49.9092 252.843 45.5592 254.952 43.0462C255.316 44.4332 255.853 46.1442 256.639 47.7232C257.54 49.5122 258.748 51.1212 260.263 52.0432C261.701 52.9092 263.12 53.6152 264.405 54.1702C265.901 54.8252 267.166 55.2702 267.952 55.5232C268.163 56.4942 268.662 58.1062 269.793 59.7552C270.541 60.8592 271.576 61.9832 272.995 62.9392C272.746 64.3392 272.305 67.1902 272.171 70.6842C272.056 73.3452 272.114 76.3772 272.535 79.4252C272.995 82.7512 273.935 85.0022 274.951 86.5282C275.987 88.1162 277.118 88.9852 277.961 89.4552C277.578 91.0612 277.06 93.9652 277.712 96.5112C278.21 98.4702 279.361 100.226 281.547 101.206C283.771 102.186 285.823 102.257 287.549 101.929C289.409 101.578 290.885 100.766 291.825 100.126C292.4 100.744 293.263 101.379 294.356 101.475C295.621 101.585 297.347 101.057 299.322 98.4672C299.725 97.9302 299.629 97.1592 299.092 96.7472C298.555 96.3352 297.788 96.4362 297.366 96.9732C296.426 98.1892 295.659 98.7912 294.969 98.9512C294.49 99.0632 294.125 98.8502 293.857 98.6172C293.435 98.2432 293.205 97.7732 293.205 97.7732C293.032 97.4032 292.687 97.1402 292.285 97.0672C291.882 96.9932 291.461 97.1172 291.173 97.4012C291.173 97.4012 289.543 98.9172 287.07 99.3582C285.805 99.5872 284.29 99.5112 282.641 98.7692C281.299 98.1602 280.628 97.0532 280.321 95.8472C279.554 92.7932 280.858 89.1122 280.858 89.1122C280.992 88.7432 280.954 88.3362 280.762 87.9972C280.57 87.6582 280.225 87.4202 279.842 87.3462C279.842 87.3462 278.078 86.8892 276.678 84.1712C276.045 82.9342 275.508 81.2742 275.201 79.0572C274.798 76.1762 274.76 73.3102 274.856 70.7962C275.067 66.0572 275.796 62.5642 275.796 62.5642C275.93 61.9902 275.662 61.4042 275.144 61.1132C273.725 60.2942 272.709 59.2562 272.019 58.2372C270.677 56.2522 270.485 54.3512 270.485 54.3512C270.428 53.7912 270.025 53.3212 269.488 53.1742C269.488 53.1742 267.782 52.7042 265.481 51.7002C264.311 51.1872 262.988 50.5362 261.665 49.7362C260.553 49.0592 259.709 47.8342 259.057 46.5212C257.542 43.4662 257.024 39.8572 257.024 39.8572C256.947 39.3262 256.583 38.8912 256.065 38.7482C255.547 38.6052 254.991 38.7812 254.646 39.1972C254.646 39.1972 249.219 45.8932 243.083 52.2472C240.264 55.1582 237.292 58.0002 234.627 60.0762C232.326 61.8722 230.466 62.5082 228.951 62.4432C225.864 62.3092 224.502 59.2342 224.502 59.2342C224.291 58.7572 223.831 58.4502 223.294 58.4512C222.776 58.4522 222.297 58.7612 222.086 59.2392C221.626 60.3042 220.974 60.8582 220.303 61.0832C218.961 61.5232 217.619 60.8622 217.619 60.8622C217.216 60.6642 216.718 60.6932 216.334 60.9412C215.951 61.1882 215.721 61.6182 215.721 62.0752C215.759 63.9172 215.165 66.7672 213.938 69.3222C212.883 71.5742 211.349 73.6392 209.202 74.3882C207.668 74.9242 206.306 74.7732 205.175 74.3512C203.027 73.5542 201.666 71.8692 201.666 71.8692C201.302 71.3942 200.611 71.3062 200.132 71.6732C199.653 72.0402 199.576 72.7242 199.94 73.1992L199.938 73.2002Z" fill="#050000"/>
<path fill-rule="evenodd" clip-rule="evenodd" d="M204.253 76.0018C204.253 76.0018 204.196 77.4798 204.023 79.7798C203.908 81.3568 203.793 83.3208 203.467 85.4508C203.16 87.4028 202.7 89.4968 202.029 91.5658C200.764 95.5038 198.673 99.2128 196.219 101.132C194.455 102.512 192.461 102.837 190.467 101.173C189.949 100.733 189.163 100.793 188.722 101.307C188.3 101.821 188.358 102.596 188.856 103.037C191.905 105.727 195.069 105.382 197.868 103.267C200.706 101.117 203.141 96.8938 204.598 92.3938C205.499 89.5838 206.017 86.7318 206.324 84.2038C206.535 82.3058 206.669 80.5928 206.65 79.2218C206.631 77.1518 206.42 75.8688 206.42 75.8688C206.382 75.2698 205.864 74.8128 205.27 74.8498C204.675 74.8868 204.215 75.4038 204.254 76.0028L204.253 76.0018Z" fill="#050000"/>
<path fill-rule="evenodd" clip-rule="evenodd" d="M176.833 66.8263C176.833 66.8263 175.28 63.1383 175.548 59.7133C175.663 58.2833 176.123 56.8903 177.274 55.9373C177.542 55.7163 177.715 55.3913 177.715 55.0463C177.715 54.7013 177.581 54.3693 177.332 54.1373C177.332 54.1373 172.673 49.8593 172.462 43.8203C172.347 40.7123 173.44 37.1493 176.93 33.4373C181.225 28.8503 186.268 25.9733 191.062 24.2663C198.157 21.7433 204.695 21.7503 207.533 22.6333C208.127 22.8163 208.779 22.5683 209.086 22.0343C209.086 22.0343 209.949 20.5653 211.387 19.0283C212.192 18.1873 213.151 17.3233 214.263 16.6823C215.299 16.0793 216.487 15.9273 217.561 15.9493C219.517 15.9883 221.166 16.6243 221.166 16.6243C221.856 16.8923 222.623 16.5553 222.892 15.8703C222.892 15.8703 223.333 14.6743 224.388 14.3693C224.925 14.2093 225.615 14.3563 226.497 14.9213C226.938 15.2043 227.513 15.2023 227.954 14.9173C228.395 14.6313 228.625 14.1153 228.548 13.5953C228.548 13.5953 228.471 12.6923 229.296 11.8633C229.775 11.4023 230.466 10.9853 231.52 10.6773C231.942 10.5483 232.287 10.2043 232.421 9.76531C232.421 9.76531 233.514 6.11331 237.828 4.06631C239.86 3.10431 242.564 2.50631 246.15 2.72931C250.445 2.99631 253.609 5.13831 255.929 7.69731C259.937 12.1483 261.394 17.8713 261.394 17.8713C261.509 18.2873 261.797 18.6283 262.199 18.7893C262.602 18.9493 263.062 18.9103 263.426 18.6823C263.426 18.6823 268.258 15.6553 273.071 14.6463C275.276 14.1803 277.481 14.0963 279.073 15.2243C280.684 16.3773 281.24 17.8753 281.316 19.3053C281.431 21.9433 280.012 24.3593 280.012 24.3593C279.724 24.8503 279.782 25.4683 280.146 25.9043C280.51 26.3403 281.105 26.5013 281.642 26.3063C281.642 26.3063 283.387 25.6223 284.614 26.6823C285.266 27.2373 285.726 28.2363 285.879 29.8823C285.994 31.1803 286.32 32.0953 286.799 32.7923C287.681 34.0973 289.158 34.6593 291.229 35.3323C294.239 36.2983 298.669 37.8653 304.153 45.1063C308.851 51.3013 311.305 57.2983 311.976 62.1693C312.34 64.9793 312.129 67.3903 311.343 69.1883C310.749 70.5783 309.79 71.5733 308.524 71.9943C308.121 72.1263 307.795 72.4413 307.661 72.8423C307.527 73.2443 307.584 73.6853 307.833 74.0343C307.833 74.0343 309.482 76.4403 310.517 78.8283C310.977 79.9143 311.38 80.9753 311.227 81.7133C311.074 82.3913 310.652 83.0863 310.172 83.7323C309.002 85.3093 307.43 86.5773 307.43 86.5773C306.874 87.0373 306.778 87.8653 307.219 88.4443C307.219 88.4443 308.293 89.8883 308.523 92.2293C308.638 93.4093 308.523 94.8103 307.967 96.3703C307.373 98.0533 306.088 99.0723 304.746 99.7123C302.349 100.865 299.722 100.835 299.722 100.835C299.319 100.83 298.955 100.999 298.686 101.296C298.437 101.593 298.303 101.988 298.36 102.378C298.36 102.378 298.724 104.833 298.034 108.222C297.689 109.92 297.075 111.849 296.021 113.822C294.947 115.856 293.528 116.657 291.918 116.673C289.138 116.701 286.031 114.809 283.385 113.202C282.848 112.865 282.12 112.997 281.736 113.508C281.736 113.508 280.605 114.857 277.633 115.378C276.272 115.613 274.584 115.678 272.494 115.411C271.823 115.324 271.209 115.798 271.133 116.469C271.037 117.14 271.516 117.756 272.188 117.844C275.218 118.249 277.538 118.015 279.225 117.573C281.028 117.108 282.197 116.402 282.888 115.855C285.745 117.575 289.024 119.277 291.939 119.265C294.393 119.255 296.675 118.171 298.343 115.063C299.532 112.845 300.241 110.676 300.644 108.764C301.104 106.531 301.181 104.645 301.143 103.434C302.639 103.267 305.055 102.8 307.087 101.495C308.544 100.556 309.81 99.2033 310.5 97.2753C311.21 95.2803 311.344 93.4863 311.21 91.9763C311.037 90.1823 310.481 88.7793 310.021 87.8893C310.673 87.2793 311.574 86.3643 312.341 85.3383C313.051 84.3723 313.626 83.3053 313.856 82.2923C314.067 81.3613 313.856 80.0803 313.377 78.7323C312.744 76.9743 311.651 75.0573 310.884 73.8233C313.856 71.9083 315.409 67.5793 314.642 61.8103C313.932 56.5843 311.325 50.1273 306.301 43.4803C303.751 40.1273 301.411 37.8973 299.321 36.3533C295.927 33.8643 293.166 33.1473 291.172 32.4753C290.328 32.1983 289.657 31.9743 289.197 31.4853C288.814 31.0883 288.641 30.5093 288.564 29.6373C288.315 27.0223 287.414 25.5163 286.378 24.6353C285.419 23.8153 284.307 23.5193 283.329 23.4573C283.827 21.9323 284.269 19.8273 283.827 17.7563C283.444 16.0643 282.523 14.3863 280.625 13.0313C278.496 11.4993 275.505 11.3743 272.514 12.0073C268.967 12.7503 265.419 14.4913 263.483 15.5433C262.543 12.9043 260.281 7.68731 256.043 4.05831C253.512 1.90431 250.31 0.299301 246.321 0.0513009C242.16 -0.205699 239.035 0.530301 236.676 1.64631C232.458 3.65131 230.693 6.90731 230.099 8.3253C228.45 8.9313 227.472 9.7863 226.858 10.6033C226.551 11.0243 226.34 11.4443 226.187 11.8373C225.19 11.5433 224.346 11.5933 223.637 11.7993C222.41 12.1543 221.547 13.0503 221.029 13.7873C220.013 13.5113 218.383 13.1883 216.657 13.2963C215.411 13.3763 214.088 13.6863 212.918 14.3743C211.576 15.1493 210.406 16.1853 209.447 17.2023C208.507 18.2013 207.779 19.1773 207.338 19.8413C203.829 19.1243 197.233 19.2543 190.177 21.7773C185.019 23.6153 179.631 26.7123 175.01 31.6423C170.926 36.0323 169.718 40.2703 169.89 43.9273C170.139 49.2173 173.303 53.3143 174.856 55.0293C173.84 56.3143 173.36 57.9023 173.245 59.5453C172.996 63.4813 174.836 67.6903 174.836 67.6903C175.066 68.2413 175.718 68.4963 176.274 68.2573C176.811 68.0193 177.079 67.3783 176.83 66.8273L176.833 66.8263Z" fill="#050000"/>
<path fill-rule="evenodd" clip-rule="evenodd" d="M277.635 97.248C277.635 97.248 277.405 99.333 276.6 102.514C276.217 104.027 275.737 105.797 275.008 107.695C273.896 110.662 272.266 113.96 269.869 117.168C266.36 121.893 262.18 125.513 258.192 128.234C255.105 130.337 252.152 131.885 249.717 133.026C246.17 134.701 243.754 135.455 243.754 135.455C243.102 135.636 242.719 136.313 242.91 136.965C243.082 137.618 243.773 138 244.425 137.819L250.849 135.465C253.399 134.316 256.486 132.658 259.708 130.458C263.907 127.587 268.337 123.758 272.037 118.77C274.568 115.332 276.313 111.803 277.502 108.627C278.25 106.605 278.806 104.732 279.151 103.106C279.88 99.626 279.822 97.328 279.822 97.328C279.841 96.728 279.362 96.222 278.767 96.2C278.172 96.178 277.655 96.647 277.636 97.247L277.635 97.248ZM173.304 175.05C171.425 173.679 166.094 169.911 158.252 165.511C153.497 162.851 147.84 159.973 141.474 157.229C131.561 152.97 123.162 151.728 116.585 152.591C109.586 153.509 104.601 156.806 101.859 161.45C99.04 166.238 98.388 171.565 101.265 176.671C103.873 181.34 109.549 185.888 119.596 189.533C126.902 192.181 135.089 193.723 142.568 194.601C152.807 195.809 161.628 195.776 164.772 195.715C164.868 196.227 165.021 196.695 165.232 197.088C165.673 197.924 166.306 198.482 167.149 198.695C167.801 198.866 168.626 198.818 169.623 198.336C170.524 197.903 171.636 197.065 172.979 195.652C175.414 193.048 177.792 188.536 179.077 184.419C179.787 182.158 180.17 180.016 180.093 178.373C180.036 177.058 179.71 176.014 179.115 175.338C177.869 173.89 176.584 173.664 175.472 173.894C174.609 174.074 173.841 174.586 173.304 175.05ZM172.556 177.449C173.093 177.809 173.86 177.721 174.263 177.253H174.148C174.148 177.253 174.915 176.285 175.893 176.106C176.353 176.024 176.832 176.225 177.331 176.831C177.695 177.285 177.734 178.051 177.695 178.975C177.599 180.795 176.947 183.136 175.989 185.494C174.723 188.667 172.921 191.877 171.061 193.845C169.776 195.212 168.818 195.937 168.07 196.119C167.955 196.144 167.859 196.165 167.782 196.132C167.628 196.069 167.571 195.877 167.494 195.679C167.34 195.288 167.283 194.808 167.264 194.304C167.226 193.575 166.612 193.01 165.883 193.038C165.883 193.038 155.452 193.439 142.873 191.943C135.606 191.08 127.61 189.586 120.515 187.002C111.311 183.66 106 179.629 103.603 175.351C101.245 171.144 101.858 166.759 104.178 162.814C106.536 158.808 110.908 156.053 116.948 155.259C123.141 154.444 131.042 155.683 140.399 159.7C146.688 162.386 152.268 165.226 156.966 167.817C166.707 173.199 172.555 177.558 172.555 177.558V177.447L172.556 177.449Z" fill="#050000"/>
<path fill-rule="evenodd" clip-rule="evenodd" d="M201.568 93.4032C201.568 93.4032 201.223 99.1642 202.757 105.951C203.62 109.835 205.154 114.032 207.608 117.702C210.063 121.355 213.322 124.39 216.505 126.769C220.973 130.105 225.268 132.15 226.821 132.841C227.147 134.084 227.895 137.127 228.087 140.336C228.202 142.127 228.164 143.973 227.742 145.564C227.359 147.06 226.745 148.143 226.093 148.922C224.789 150.475 223.313 150.736 223.313 150.736C222.891 150.795 222.527 151.039 222.335 151.398C222.124 151.757 222.086 152.19 222.239 152.573C222.239 152.573 224.118 157.288 228.279 161.054C230.695 163.228 233.84 165.083 237.79 165.593C242.66 166.222 247.646 164.673 251.673 162.126C256.658 158.958 260.033 154.234 260.11 150.393C260.11 149.699 259.592 149.11 258.902 149.034C258.902 149.034 257.771 148.894 256.908 148C256.448 147.534 256.064 146.859 255.93 145.897C255.758 144.591 255.623 142.615 255.527 140.583C255.354 136.623 255.297 132.453 255.297 132.453C255.297 131.776 254.741 131.228 254.07 131.231C253.399 131.233 252.843 131.785 252.843 132.462C252.843 132.462 252.824 136.679 252.958 140.684C253.016 142.81 253.131 144.877 253.303 146.244C253.514 147.908 254.185 149.065 254.971 149.876C255.738 150.654 256.601 151.109 257.291 151.37C256.716 154.292 253.897 157.517 250.215 159.853C246.725 162.073 242.392 163.471 238.135 162.921C234.779 162.49 232.133 160.898 230.101 159.057C227.685 156.879 226.151 154.346 225.365 152.856C226.189 152.459 227.206 151.788 228.164 150.66C229.027 149.634 229.832 148.217 230.35 146.248C230.829 144.396 230.906 142.25 230.772 140.167C230.484 135.667 229.219 131.474 229.219 131.474C229.104 131.086 228.816 130.773 228.433 130.621C228.433 130.621 223.409 128.579 218.098 124.629C215.145 122.422 212.096 119.62 209.814 116.229C207.513 112.84 206.152 108.94 205.27 105.357C203.678 98.9412 203.736 93.4852 203.736 93.4852C203.774 92.8852 203.295 92.3802 202.7 92.3582C202.106 92.3362 201.588 92.8052 201.569 93.4052L201.568 93.4032Z" fill="#050000"/>
<path fill-rule="evenodd" clip-rule="evenodd" d="M207.915 115.957C207.915 115.957 204.579 117.187 201.127 116.443C199.267 116.041 197.35 115.036 195.95 112.785C195.739 112.45 195.394 112.227 195.011 112.176C194.608 112.125 194.225 112.252 193.937 112.522C193.937 112.522 193.151 113.273 192.154 113.318C191.675 113.34 191.157 113.138 190.658 112.575C190.466 112.376 190.236 112.235 189.987 112.171C189.987 112.171 187.724 111.623 186.305 109.974C185.538 109.104 185.059 107.896 185.346 106.262C185.442 105.737 185.212 105.208 184.771 104.914C184.33 104.62 183.755 104.617 183.294 104.906C183.294 104.906 176.736 109.211 171.118 108.099C168.836 107.646 166.746 106.205 165.385 103.084C162.969 97.5408 163.851 90.7148 166.19 84.4198C167.111 81.9478 168.28 79.5628 169.546 77.3508C171.713 73.5938 174.225 70.3428 176.698 68.1668C177.196 67.7228 177.254 66.9478 176.813 66.4358C176.372 65.9238 175.586 65.8688 175.087 66.3128C172.403 68.5928 169.584 71.9908 167.225 75.9948C165.844 78.3238 164.636 80.8628 163.659 83.4798C161.07 90.4538 160.227 98.0198 162.911 104.161C164.714 108.306 167.551 110.145 170.6 110.745C175.01 111.616 179.938 109.661 182.661 108.309C182.872 109.701 183.505 110.825 184.272 111.726C185.825 113.498 188.049 114.35 188.951 114.637C190.063 115.724 191.233 116.016 192.287 115.964C193.131 115.922 193.898 115.619 194.511 115.295C196.275 117.496 198.461 118.559 200.628 118.955C204.789 119.721 208.739 117.971 208.739 117.971C209.295 117.743 209.563 117.107 209.333 116.551C209.122 115.995 208.471 115.729 207.915 115.957ZM225.364 151.179C225.364 151.179 224.885 150.038 223.907 149.145C223.236 148.512 222.296 148.079 221.28 148.033C219.995 147.975 218.423 148.549 216.831 150.79C215.45 152.757 213.859 154.259 212.306 155.417C211.156 156.288 209.986 156.943 208.989 157.496C208.069 158 207.263 158.422 206.611 158.735C205.978 159 205.69 159.723 205.959 160.344C206.228 160.967 206.956 161.257 207.57 160.99C208.299 160.718 209.219 160.382 210.216 159.886C211.366 159.318 212.632 158.544 213.936 157.575C215.681 156.263 217.464 154.559 219.037 152.333C219.842 151.165 220.514 150.661 221.165 150.68C221.606 150.693 221.951 150.925 222.258 151.156C222.948 151.664 223.466 152.251 223.466 152.251C223.773 152.774 224.425 152.959 224.962 152.663C225.48 152.368 225.672 151.702 225.365 151.181L225.364 151.179ZM164.733 171.911C164.733 171.911 165.557 171.74 166.938 171.388C167.379 171.277 167.858 171.141 168.395 170.989C171.866 169.992 177.388 168.385 183.006 167.229C185.94 166.623 188.912 166.163 191.616 165.881C192.901 165.745 194.128 165.628 195.278 165.613C195.949 165.625 196.505 165.084 196.524 164.407C196.524 163.73 195.987 163.17 195.316 163.159C194.089 163.101 192.766 163.103 191.366 163.205C188.566 163.41 185.498 163.957 182.45 164.589C176.755 165.774 171.118 167.344 167.628 168.476C167.091 168.65 166.612 168.815 166.171 168.975C164.81 169.487 164.043 169.851 164.043 169.851C163.468 170.043 163.161 170.66 163.353 171.23C163.545 171.8 164.158 172.104 164.734 171.913L164.733 171.911ZM107.727 181.915C107.727 181.915 105.388 183.702 104.448 186.227C103.988 187.445 103.873 188.821 104.333 190.229C105.023 192.223 105.503 193.301 105.579 194.449C105.636 195.187 105.483 195.95 105.119 197.061C104.467 199.14 103.067 203.195 103.106 207.111C103.144 209.657 103.777 212.141 105.426 214.094C107.65 216.723 111.447 219.793 115.128 221.914C118.33 223.755 121.475 224.829 123.527 224.543C125.176 224.292 126.595 223.636 127.726 222.867C129.797 221.475 130.928 219.763 130.928 219.763C131.311 219.207 131.177 218.442 130.621 218.056C130.065 217.673 129.298 217.812 128.915 218.369C128.915 218.369 127.956 219.658 126.307 220.699C125.444 221.247 124.39 221.723 123.143 221.878C121.513 222.106 119.04 221.061 116.47 219.581C113.076 217.617 109.548 214.785 107.477 212.35C106.231 210.881 105.828 208.994 105.809 207.081C105.752 203.491 107.074 199.777 107.669 197.871C108.148 196.341 108.302 195.282 108.225 194.266C108.129 192.939 107.611 191.679 106.825 189.382C106.461 188.337 106.691 187.321 107.094 186.45C107.842 184.801 109.126 183.593 109.126 183.593C109.586 183.21 109.644 182.523 109.26 182.061C108.876 181.599 108.206 181.534 107.727 181.915Z" fill="#050000"/>
<path fill-rule="evenodd" clip-rule="evenodd" d="M114.438 215.204C114.438 215.204 115.071 215.586 116.164 216.099C116.509 216.264 116.912 216.431 117.353 216.607C119.29 217.391 121.936 218.331 124.467 219.075C127.554 219.974 130.488 220.492 132.079 220.147C133.517 219.834 134.687 219.077 135.588 218.147C136.163 217.578 136.624 216.95 136.988 216.325C137.928 214.72 138.234 213.209 138.234 213.209C138.407 212.553 138.004 211.882 137.352 211.713C136.7 211.542 136.029 211.935 135.856 212.591L134.706 214.93C134.418 215.377 134.092 215.843 133.67 216.259C133.114 216.832 132.405 217.319 131.503 217.515C130.487 217.735 128.78 217.413 126.882 216.94C123.68 216.142 119.979 214.704 117.64 213.908C116.221 213.431 115.281 213.197 115.281 213.197C114.725 212.963 114.092 213.224 113.862 213.776C113.632 214.33 113.881 214.969 114.437 215.203L114.438 215.204Z" fill="#050000"/>
<path fill-rule="evenodd" clip-rule="evenodd" d="M111.657 202.47C111.657 202.47 112.75 203.567 114.495 205.028C116.393 206.591 119.059 208.541 121.705 210.28C124.601 212.169 127.515 213.739 129.624 214.217C132.769 214.926 135.894 214.729 138.387 214.043C140.995 213.326 142.951 212.033 143.775 210.726C144.35 209.813 144.638 208.598 144.695 207.353C144.81 205.071 144.235 202.736 144.235 202.736C144.082 202.076 143.43 201.658 142.759 201.804C142.107 201.952 141.685 202.606 141.838 203.267C141.838 203.267 142.126 204.841 142.087 206.548C142.068 207.528 141.972 208.567 141.492 209.284C140.802 210.394 138.846 211.286 136.468 211.721C134.57 212.062 132.403 212.081 130.217 211.587C128.338 211.165 125.749 209.71 123.18 208.04C120.572 206.358 118.022 204.397 116.085 202.984C114.283 201.663 113.055 200.808 113.055 200.808C112.595 200.421 111.905 200.48 111.521 200.94C111.138 201.4 111.195 202.087 111.655 202.472L111.657 202.47Z" fill="#050000"/>
<path fill-rule="evenodd" clip-rule="evenodd" d="M116.413 197.147C116.413 197.147 117.621 198.606 119.615 200.366C121.111 201.691 123.066 203.144 125.118 204.402C127.534 205.875 130.123 207.014 132.5 207.257C135.625 207.575 138.636 206.745 141.129 205.453C144.638 203.643 147.111 200.903 147.706 199.273C148.051 198.211 148.147 197.152 148.089 196.222C147.974 194.535 147.418 193.29 147.418 193.29C147.149 192.665 146.44 192.368 145.807 192.627C145.193 192.886 144.887 193.603 145.155 194.228C145.155 194.228 145.481 195.135 145.5 196.335C145.519 196.958 145.423 197.662 145.174 198.362C144.714 199.637 142.643 201.643 139.901 203.06C137.83 204.126 135.357 204.841 132.768 204.577C130.755 204.376 128.569 203.359 126.517 202.119C124.561 200.946 122.778 199.525 121.301 198.355C119.326 196.788 117.965 195.623 117.965 195.623C117.543 195.193 116.853 195.188 116.431 195.608C115.99 196.03 115.99 196.718 116.412 197.148L116.413 197.147ZM152.922 193.962C152.922 193.962 152.212 194.731 151.407 195.929C151.138 196.355 150.87 196.849 150.583 197.359C149.912 198.625 149.26 200.045 148.915 201.297C148.378 203.349 148.532 205.928 148.205 208.05C148.09 208.836 147.898 209.549 147.495 210.079C147.15 210.518 146.536 210.622 145.904 210.696C144.121 210.905 142.127 210.468 142.127 210.468C141.456 210.295 140.785 210.688 140.612 211.342C140.459 211.998 140.842 212.669 141.494 212.841C141.494 212.841 143.009 213.32 144.715 213.414C145.194 213.441 145.693 213.422 146.172 213.372C147.591 213.228 148.856 212.71 149.623 211.731C150.294 210.87 150.678 209.739 150.869 208.458C151.176 206.42 151.003 203.944 151.502 201.975C151.732 201.122 152.135 200.176 152.576 199.277C152.921 198.556 153.343 197.875 153.65 197.262C154.283 196.075 154.705 195.203 154.705 195.203C155.05 194.71 154.935 194.031 154.436 193.688C153.938 193.345 153.266 193.467 152.921 193.96L152.922 193.962ZM105.176 212.855C105.176 212.855 102.606 218.034 99.749 224.906C98.158 228.716 96.509 233.055 95.07 237.289C92.692 244.297 91.024 251.06 91.446 254.939C92.117 260.92 92.884 266.659 95.109 270.852C96.95 274.361 99.749 276.856 104.217 277.696C108.991 278.599 115.223 276.275 122.011 271.767C128.607 267.376 135.798 260.947 142.777 253.766C147.245 249.147 151.329 244.783 154.742 240.973C161.817 233.121 166.209 227.693 166.209 227.693C166.631 227.171 166.573 226.397 166.036 225.965C165.518 225.534 164.751 225.606 164.31 226.13C164.31 226.13 159.842 231.422 152.767 239.175C149.335 242.941 145.289 247.301 140.84 251.892C134.014 258.923 126.976 265.226 120.515 269.523C114.456 273.548 108.991 275.853 104.715 275.047C101.168 274.384 98.943 272.387 97.486 269.599C95.396 265.662 94.744 260.261 94.111 254.645C93.708 251.015 95.376 244.703 97.582 238.134C98.982 233.948 100.631 229.672 102.146 225.881C104.85 219.018 107.151 213.774 107.151 213.774C107.4 213.229 107.17 212.581 106.614 212.328C106.077 212.075 105.425 212.311 105.176 212.855Z" fill="#050000"/>
<path fill-rule="evenodd" clip-rule="evenodd" d="M148.914 208.148C148.914 208.148 149.412 208.98 150.333 210.273C150.525 210.549 150.755 210.841 150.985 211.149C152.366 212.955 154.321 215.358 156.296 217.801C159.345 221.538 162.547 225.331 164.311 227.091C165.768 228.527 166.976 229.561 167.954 230.268C169.967 231.725 171.022 231.984 171.022 231.984C171.674 232.191 172.364 231.836 172.575 231.192C172.767 230.548 172.421 229.856 171.77 229.648L169.546 228.154C168.664 227.468 167.552 226.52 166.21 225.18C165.405 224.377 164.293 223.13 163.027 221.663C159.844 217.976 155.798 212.868 153.19 209.706C152.845 209.267 152.5 208.868 152.193 208.521C151.234 207.434 150.621 206.805 150.621 206.805C150.257 206.333 149.566 206.249 149.087 206.619C148.627 206.989 148.531 207.675 148.914 208.148Z" fill="#050000"/>
<path fill-rule="evenodd" clip-rule="evenodd" d="M170.313 207.513C170.313 207.513 170.332 212.59 170.351 219.499C170.351 221.974 170.37 224.688 170.37 227.485C170.351 231.897 170.255 236.524 170.063 240.771C169.641 250.404 166.823 279.268 165.787 301.906C165.576 306.65 165.423 311.119 165.423 315.085C165.404 320.778 165.653 325.443 166.209 328.412C166.324 329.079 166.976 329.524 167.628 329.403C168.299 329.284 168.74 328.647 168.625 327.98C168.127 325.106 168.011 320.6 168.088 315.104C168.126 311.169 168.261 306.736 168.471 302.031C169.526 279.393 172.306 250.524 172.728 240.89C173.016 234.378 173.092 226.984 172.977 220.806C172.843 213.197 172.479 207.439 172.479 207.439C172.46 206.839 171.961 206.367 171.367 206.388C170.773 206.407 170.293 206.911 170.312 207.512L170.313 207.513ZM132.5 219.072C132.5 219.072 132.27 220.194 132.078 222.088C131.79 224.891 131.579 229.371 131.311 234.21C131.119 237.723 130.889 241.427 130.793 244.835C130.755 246.442 130.774 247.982 130.774 249.404C130.755 250.081 131.292 250.645 131.963 250.662C132.634 250.679 133.209 250.144 133.209 249.467C133.286 248.272 133.382 246.997 133.458 245.667C133.496 245.13 133.496 244.586 133.535 244.035C133.842 236.145 134.571 226.925 134.685 222.258C134.742 220.36 134.666 219.221 134.666 219.221C134.704 218.621 134.263 218.101 133.669 218.061C133.055 218.019 132.538 218.473 132.499 219.072H132.5ZM194.78 207.45C194.78 207.45 194.837 204.367 194.876 199.92C194.914 194.967 194.876 188.323 195.125 182.373C195.278 178.233 195.547 174.435 195.988 171.798C196.678 167.526 197.311 164.968 198.136 163.284C199.056 161.453 200.245 160.805 202.028 159.898C202.795 159.515 203.409 159.365 203.907 159.536C204.233 159.649 204.482 159.912 204.693 160.247C205.268 161.221 205.479 162.713 205.441 164.41C205.403 166.069 205.575 169.215 205.863 172.542C206.342 178.262 207.09 184.522 207.09 184.522C207.147 185.197 207.761 185.686 208.432 185.615C209.103 185.544 209.602 184.94 209.525 184.267C209.525 184.267 208.796 176.459 208.394 170.344C208.221 167.905 208.106 165.74 208.125 164.477C208.202 161.465 207.454 158.978 206.093 157.766C204.866 156.673 203.14 156.324 200.82 157.494C198.442 158.698 196.928 159.653 195.719 162.088C194.818 163.925 194.089 166.701 193.322 171.365C192.766 174.834 192.459 180.264 192.325 185.882C192.229 190.402 192.171 195.042 192.248 198.86C192.363 203.903 192.593 207.504 192.593 207.504C192.612 208.104 193.111 208.58 193.705 208.564C194.319 208.549 194.799 208.05 194.78 207.45ZM257.942 150.587C257.942 150.568 258.345 149.655 258.843 150.069L257.942 150.587C258.306 150.587 258.652 150.407 258.863 150.085V150.112C258.844 150.112 258.844 150.116 258.844 150.129C258.863 150.137 258.863 150.125 258.863 150.112C258.92 150.114 259.074 150.162 259.227 150.16C259.553 150.154 259.975 150.26 260.55 150.526C261.048 150.748 261.605 151.076 262.256 151.55C263.637 152.532 265.266 153.398 266.916 154.133C268.757 154.959 270.578 155.652 271.959 156.098C272.956 156.416 273.704 156.581 273.991 156.71C274.605 157.015 275.333 156.773 275.64 156.169C275.947 155.565 275.697 154.827 275.103 154.52C274.777 154.34 273.972 153.985 272.86 153.559C271.556 153.062 269.792 152.46 268.009 151.67C266.533 151.012 265.056 150.249 263.81 149.371C261.854 147.99 260.435 147.559 259.496 147.586C257.521 147.644 257.003 148.951 257.003 148.951C256.696 149.471 256.869 150.138 257.386 150.439C257.558 150.539 257.75 150.587 257.942 150.587Z" fill="#050000"/>
<path fill-rule="evenodd" clip-rule="evenodd" d="M275.641 207.469C275.641 207.469 275.718 203.996 275.756 198.999C275.775 197.931 275.794 196.796 275.794 195.611C275.813 184.952 275.717 170.214 275.89 165.165C276.024 160.839 275.794 158.049 276.101 156.337C276.178 155.921 276.235 155.597 276.465 155.392C276.695 155.189 277.04 155.127 277.5 155.085C278.938 154.945 280.05 155.635 280.875 157.382C281.719 159.181 282.256 161.905 282.524 165.784C282.869 170.58 283.809 182.05 284.729 192.036C285.592 201.428 286.397 209.506 286.397 209.506C286.474 210.181 287.068 210.679 287.739 210.618C288.41 210.557 288.909 209.96 288.851 209.285C288.851 209.285 288.372 203.115 287.72 195.295C287.145 188.567 286.435 180.619 285.898 174.323C285.591 170.664 285.361 167.566 285.208 165.597C284.825 160.038 283.827 156.602 282.409 154.696C281.028 152.851 279.303 152.199 277.232 152.399C276.062 152.512 275.257 152.857 274.682 153.381C274.049 153.941 273.646 154.733 273.436 155.872C273.129 157.655 273.359 160.566 273.206 165.078C273.053 170.012 273.014 184.165 273.168 194.776C273.264 201.94 273.456 207.483 273.456 207.483C273.475 208.085 273.954 208.568 274.568 208.563C275.163 208.559 275.642 208.068 275.642 207.468L275.641 207.469Z" fill="#050000"/>
<path fill-rule="evenodd" clip-rule="evenodd" d="M283.368 160.646C283.368 160.646 286.743 161.587 291.728 162.479C294.24 162.928 297.135 163.325 300.203 163.662C304.383 164.115 307.624 164.87 310.212 166.41C312.877 168.007 314.814 170.464 316.405 174.245C318.572 179.449 319.78 183.413 321.736 186.093C322.982 187.792 324.516 189.025 326.683 189.78C329.157 190.647 330.556 191.118 331.266 192.008C331.726 192.574 331.803 193.304 331.822 194.382C330.806 195.406 327.968 198.307 325.168 201.231C321.659 204.868 318.208 208.542 318.208 208.542C317.729 209.027 317.748 209.804 318.227 210.275C318.725 210.747 319.492 210.737 319.972 210.252C319.972 210.252 323.539 206.693 327.086 203.098C330.614 199.503 334.123 195.871 334.123 195.871C334.372 195.622 334.506 195.29 334.506 194.943C334.525 192.728 334.218 191.378 333.375 190.326C332.455 189.177 330.767 188.353 327.565 187.237C325.417 186.485 324.133 185.086 323.04 183.111C321.679 180.628 320.605 177.311 318.879 173.203C317.019 168.787 314.699 165.966 311.573 164.108C308.697 162.403 305.13 161.517 300.49 161.025C298.132 160.776 295.869 160.465 293.817 160.16C292.762 160.003 291.765 159.842 290.826 159.698C286.646 159.054 283.866 158.526 283.866 158.526C283.272 158.39 282.696 158.754 282.543 159.339C282.409 159.924 282.773 160.509 283.367 160.645L283.368 160.646Z" fill="#050000"/>
<path fill-rule="evenodd" clip-rule="evenodd" d="M270.847 208.547C270.847 208.547 277.366 209.878 287.011 210.846C291.805 211.327 297.385 211.692 303.29 211.812C314.45 212.017 327.45 210.711 337.786 210.869C343.577 210.957 348.486 211.475 351.707 213.078C356.712 215.567 361.774 219.358 364.612 223.797C366.606 226.913 367.507 230.353 366.318 233.858C365.608 235.94 363.825 237.866 361.237 239.534C358.303 241.427 354.353 242.957 349.636 243.935C341.142 245.693 330.193 245.647 318.074 242.625C309.886 240.583 302.561 238.547 296.387 236.744C283.022 232.852 274.969 229.973 274.969 229.973C274.336 229.739 273.627 230.067 273.397 230.702C273.167 231.339 273.493 232.042 274.126 232.276C274.126 232.276 282.199 235.306 295.621 239.298C301.834 241.143 309.197 243.175 317.423 245.236C329.983 248.375 341.372 248.398 350.174 246.574C356.368 245.295 361.295 243.1 364.574 240.448C366.722 238.707 368.179 236.753 368.869 234.724C370.326 230.417 369.348 226.17 366.875 222.339C363.788 217.524 358.342 213.371 352.916 210.673C349.426 208.938 344.096 208.282 337.844 208.192C327.49 208.042 314.508 209.367 303.349 209.176C297.501 209.088 291.997 208.714 287.242 208.304C277.731 207.483 271.25 206.408 271.25 206.408C270.656 206.299 270.08 206.69 269.965 207.28C269.869 207.871 270.253 208.438 270.847 208.547Z" fill="#050000"/>
<path fill-rule="evenodd" clip-rule="evenodd" d="M331.344 196.576C331.344 196.576 332.034 197.28 333.261 198.3C336.521 201.013 343.424 206.093 347.795 209.621C348.178 209.922 348.524 210.217 348.869 210.486C349.943 211.328 350.825 211.984 351.343 212.434C351.841 212.898 352.608 212.871 353.088 212.376C353.548 211.881 353.51 211.105 353.031 210.643C352.437 210.06 351.42 209.115 350.097 208.01C348.16 206.39 345.572 204.403 343.021 202.434C339.896 200.029 336.847 197.608 334.833 196.214C333.529 195.305 332.666 194.839 332.666 194.839C332.187 194.477 331.496 194.572 331.132 195.052C330.768 195.531 330.864 196.214 331.343 196.576H331.344ZM307.605 209.364C307.605 209.364 307.682 208.841 307.778 207.934C307.797 207.648 307.816 207.326 307.835 206.97C307.95 204.661 308.142 201.003 308.89 197.434C309.273 195.61 309.81 193.823 310.481 192.236C310.788 191.523 311.076 190.836 311.459 190.226C311.842 189.668 311.689 188.905 311.133 188.521C310.577 188.137 309.81 188.281 309.426 188.839C308.908 189.525 308.429 190.291 308.026 191.132C307.202 192.854 306.665 194.863 306.243 196.886C305.476 200.633 305.207 204.477 305.207 206.903C305.207 207.275 305.226 207.611 305.245 207.91C305.322 208.876 305.437 209.431 305.437 209.431C305.456 210.031 305.955 210.505 306.549 210.486C307.144 210.467 307.623 209.964 307.604 209.364H307.605ZM311.498 205.912C311.498 205.912 311.651 205.766 311.824 205.431C311.882 205.329 311.92 205.214 311.978 205.082C312.285 204.263 312.726 202.942 313.435 201.577C313.742 200.956 314.145 200.342 314.528 199.715C314.7 199.452 314.816 199.178 314.988 198.917C315.41 198.394 315.333 197.621 314.816 197.191C314.298 196.763 313.512 196.842 313.09 197.365C312.764 197.695 312.457 198.032 312.17 198.402C311.518 199.273 311.058 200.249 310.636 201.15C310.041 202.479 309.543 203.677 309.428 204.471C309.332 205.071 309.39 205.407 309.39 205.407C309.256 205.99 309.62 206.579 310.195 206.717C310.77 206.857 311.365 206.496 311.499 205.912H311.498ZM232.727 174.964C232.018 174.962 224.769 175.018 216.87 178.007C212.172 179.786 207.263 182.605 203.332 187.031C198.903 192.007 195.528 198.967 193.093 206.561C189.584 217.448 188.012 229.628 187.801 238.934C187.705 243.561 187.648 248.675 187.629 253.578C187.571 263.265 187.61 272.122 187.629 274.747C186.843 275.253 185.635 276.208 184.906 277.727C184.465 278.621 184.158 279.71 184.196 281.017C182.087 281.172 178.175 281.748 175.222 283.836C173.228 285.253 171.655 287.33 171.234 290.363C170.774 293.573 170.812 297.011 171.042 300.088C171.425 305.419 172.384 309.65 172.384 309.65C172.518 310.242 173.036 310.668 173.63 310.691C174.243 310.714 174.78 310.325 174.953 309.746C174.953 309.746 176.046 306.191 178.922 303.614C180.494 302.205 182.604 301.094 185.403 301.083C188.605 301.07 191.846 302.011 194.78 302.676C197.407 303.272 199.842 303.639 201.855 303.186C204.271 302.647 206.227 301.065 207.339 297.347C208.298 294.174 208.662 291.288 208.72 288.831C208.758 287.571 208.72 286.423 208.624 285.401C209.928 286.647 211.558 287.884 213.379 288.622C215.737 289.573 218.403 289.746 221.145 288.275C221.605 288.035 221.874 287.567 221.855 287.061C221.855 286.555 221.567 286.096 221.107 285.878C221.107 285.878 219.554 285.124 217.828 283.729C217.349 283.336 216.85 282.891 216.371 282.396C217.521 282.024 219.017 281.518 220.532 280.979C221.28 280.711 222.028 280.433 222.737 280.158C222.756 281.888 222.68 284.572 222.181 287.128C221.798 289.04 221.184 290.888 220.11 292.117C219.88 292.385 219.746 292.74 219.784 293.097C219.803 293.456 219.976 293.789 220.244 294.023C220.244 294.023 223.58 296.938 227.895 298.498C229.812 299.186 231.883 299.61 233.973 299.455C235.986 299.304 238.096 298.724 240.051 297.977C244.481 296.28 248.143 293.728 248.143 293.728C248.584 293.419 248.795 292.879 248.699 292.349C248.699 292.349 247.894 288.447 247.491 284.347C248.201 284.608 249.485 284.987 251 284.932C252.246 284.886 253.627 284.558 254.988 283.665C256.119 282.917 257.116 282.121 257.96 281.389C258.113 281.249 258.267 281.109 258.42 280.975C258.574 283.194 258.842 286.317 259.264 289.278C259.686 292.392 260.319 295.331 261.105 296.969C262.486 299.79 267.068 303.093 271.67 304.357C275.064 305.289 278.42 305.082 280.586 303.18C283.577 300.568 285.476 297.886 287.796 296.34C288.774 295.686 289.848 295.264 291.152 295.214C292.456 295.166 293.836 295.737 295.121 296.48C298.074 298.2 300.528 300.932 300.528 300.932C300.854 301.314 301.391 301.469 301.889 301.331C302.388 301.193 302.752 300.785 302.848 300.28C302.848 300.28 303.845 294.917 303.27 290.14C302.944 287.392 302.081 284.855 300.413 283.389C298.841 282.01 297.307 281.358 295.965 281.094C294.508 280.806 293.261 280.973 292.341 281.224C291.785 279.673 290.654 277.322 288.717 276.118C287.471 275.339 285.918 274.962 283.981 275.493C283.808 275.257 283.559 274.897 283.271 274.36C282.389 272.774 281.258 269.963 280.165 265.074C279.168 260.67 278.19 254.624 277.481 246.34C276.273 232.294 274.605 218.807 272.055 207.735C269.543 196.811 266.13 188.213 261.605 183.594C258.709 180.645 254.836 178.66 250.848 177.347C242.047 174.453 232.728 174.826 232.728 174.826L232.727 174.964ZM232.765 177.278H232.822C232.822 177.278 241.7 176.95 250.06 179.734C253.646 180.934 257.155 182.712 259.762 185.389C264.038 189.774 267.106 197.977 269.465 208.326C271.977 219.298 273.626 232.657 274.796 246.57C275.716 257.185 277.039 264.203 278.324 268.822C280.567 276.962 282.907 278.181 282.907 278.181C283.271 278.4 283.712 278.438 284.096 278.285C285.822 277.61 287.087 278.07 287.969 278.933C289.618 280.553 290.174 283.282 290.174 283.282C290.251 283.71 290.557 284.07 290.96 284.243C291.363 284.417 291.823 284.385 292.187 284.157C292.187 284.157 293.548 283.363 295.447 283.737C296.406 283.927 297.499 284.42 298.63 285.413C299.857 286.496 300.356 288.429 300.605 290.46C300.893 292.836 300.739 295.371 300.548 297.198C299.474 296.224 298.036 295.062 296.464 294.151C294.719 293.142 292.821 292.458 291.057 292.523C289.197 292.594 287.682 293.175 286.302 294.099C283.905 295.698 281.911 298.45 278.824 301.153C278.038 301.83 277.041 302.133 275.929 302.2C274.261 302.3 272.401 301.872 270.637 301.165C267.454 299.905 264.501 297.761 263.542 295.788C262.832 294.323 262.315 291.686 261.931 288.904C261.183 283.618 260.934 277.808 260.934 277.808C260.896 277.252 260.531 276.767 260.014 276.59C259.477 276.412 258.902 276.575 258.557 277.002C258.557 277.002 257.656 278.064 256.179 279.362C255.431 280.022 254.53 280.741 253.495 281.416C252.613 281.997 251.712 282.208 250.906 282.239C250.81 282.243 250.714 282.243 250.637 282.243L255.181 278.73C255.641 278.383 255.814 277.79 255.641 277.25C255.469 276.711 254.97 276.337 254.414 276.318L246.265 276.038C245.594 276.015 245.019 276.469 244.884 277.114C244.539 278.826 244.539 281.204 244.731 283.61C244.98 286.983 245.575 290.411 245.881 291.995C244.845 292.651 242.813 293.872 240.397 294.925C238.326 295.819 235.987 296.599 233.763 296.766C231.615 296.927 229.468 296.296 227.608 295.474C225.614 294.592 223.965 293.478 222.968 292.749C223.85 291.317 224.445 289.52 224.828 287.658C225.748 283.058 225.346 278.082 225.346 278.082C225.327 277.649 225.078 277.257 224.694 277.033C224.33 276.809 223.87 276.778 223.467 276.952C222.393 277.422 221.013 277.947 219.613 278.444C216.641 279.508 213.669 280.444 213.669 280.444C213.247 280.572 212.921 280.893 212.787 281.301C212.653 281.711 212.73 282.162 212.979 282.511C213.919 283.821 215.05 284.931 216.143 285.815C216.526 286.122 216.891 286.402 217.236 286.653C216.239 286.699 215.299 286.49 214.398 286.13C210.333 284.485 207.438 279.892 207.438 279.892C207.074 279.311 206.326 279.102 205.712 279.413C205.098 279.722 204.811 280.447 205.06 281.091C205.06 281.091 206.172 284.054 206.038 288.763C205.98 291.018 205.655 293.666 204.772 296.579C204.043 299.043 202.874 300.213 201.263 300.571C199.595 300.949 197.562 300.559 195.376 300.063C192.251 299.355 188.799 298.391 185.386 298.406C181.839 298.419 179.135 299.827 177.141 301.624C175.933 302.705 174.993 303.931 174.284 305.068C174.054 303.601 173.843 301.822 173.709 299.895C173.498 296.996 173.46 293.753 173.862 290.729C174.169 288.533 175.319 287.036 176.777 286.01C180.363 283.46 185.655 283.619 185.655 283.619C186.077 283.63 186.46 283.454 186.71 283.14C186.979 282.827 187.074 282.411 186.998 282.013C186.71 280.715 186.902 279.687 187.286 278.899C188.034 277.377 189.491 276.744 189.491 276.744C189.97 276.533 190.296 276.048 190.296 275.513C190.296 275.513 190.2 265.145 190.277 253.594C190.296 248.704 190.354 243.604 190.449 238.989C190.622 229.896 192.194 218.004 195.569 207.352C197.87 200.106 200.995 193.427 205.176 188.653C208.8 184.507 213.364 181.865 217.697 180.174C225.559 177.116 232.768 177.142 232.768 177.142V177.28L232.765 177.278ZM247.319 281.399L250.579 278.883L247.377 278.774C247.3 279.572 247.281 280.465 247.32 281.399H247.319Z" fill="#050000"/>
<path fill-rule="evenodd" clip-rule="evenodd" d="M205.269 213.942C204.962 212.987 204.713 211.896 204.559 210.682C204.271 208.306 204.386 205.474 205.345 202.289C206.304 199.1 207.838 196.761 209.487 195.06C210.561 193.927 211.711 193.098 212.727 192.445C214.798 191.11 216.409 190.597 216.409 190.597C217.003 190.47 217.387 189.889 217.253 189.303C217.119 188.716 216.543 188.342 215.949 188.469C215.949 188.469 213.917 188.751 211.366 190.204C210.158 190.902 208.854 191.907 207.569 193.214C205.671 195.162 203.887 197.845 202.775 201.511C201.682 205.114 201.548 208.324 201.893 211.012C202.583 216.686 205.287 220.078 205.287 220.078C205.651 220.534 206.265 220.707 206.821 220.506C207.358 220.305 207.722 219.774 207.703 219.193C207.703 219.193 207.588 216.875 207.78 214.702C207.876 213.69 207.991 212.706 208.278 212.071C208.566 211.461 208.316 210.727 207.703 210.433C207.09 210.138 206.361 210.395 206.054 211.004C205.69 211.725 205.422 212.793 205.269 213.942Z" fill="#050000"/>
<path fill-rule="evenodd" clip-rule="evenodd" d="M252.899 214.56C252.861 215.262 252.746 215.994 252.496 216.734C252.343 217.204 252.439 217.72 252.784 218.082C253.129 218.442 253.628 218.59 254.107 218.464C254.107 218.464 257.597 217.57 260.147 214.341C261.413 212.73 262.448 210.542 262.717 207.59C263.1 203.046 262.123 197.193 258.901 192.578C256.159 188.661 251.845 185.614 245.44 184.968C244.769 184.895 244.174 185.382 244.098 186.055C244.021 186.728 244.501 187.334 245.172 187.407C250.675 188.051 254.357 190.717 256.677 194.111C259.496 198.205 260.359 203.353 260.033 207.363C259.822 209.683 259.017 211.409 258.02 212.673C257.253 213.657 256.371 214.362 255.585 214.855C255.623 214.099 255.604 213.371 255.528 212.69C255.221 209.983 254.128 208.019 254.128 208.019C253.821 207.455 253.169 207.187 252.556 207.377C251.942 207.569 251.54 208.165 251.616 208.804C251.693 209.617 251.424 210.677 251.079 211.736C250.504 213.481 249.66 215.203 249.257 215.977C248.011 216.451 244.118 217.791 238.711 218.564C235.394 219.036 231.52 219.296 227.302 219.018C223.448 218.767 220.629 218.393 218.558 217.992C216.334 217.559 215.049 217.106 214.32 216.748C213.994 216.589 213.745 216.407 213.745 216.407C213.745 216.407 213.803 216.461 213.803 216.472C213.822 216.495 213.841 216.516 213.841 216.516L212.748 218.562C212.269 218.562 211.827 218.301 211.598 217.883C211.368 217.465 211.387 216.955 211.636 216.55L211.31 217.093C210.773 216.403 210.313 215.712 209.929 215.06C208.683 212.968 208.222 211.284 208.222 211.284C208.088 210.701 207.493 210.341 206.918 210.481C206.324 210.623 205.959 211.212 206.113 211.794C206.113 211.794 206.535 213.761 207.839 216.225C208.51 217.462 209.392 218.817 210.562 220.119C210.831 220.409 211.214 220.558 211.617 220.522C212 220.484 212.365 220.265 212.576 219.93L213.132 219.077C213.861 219.445 214.954 219.859 216.545 220.249C218.75 220.788 222.086 221.332 227.13 221.676C231.54 221.975 235.605 221.709 239.076 221.218C246.151 220.221 250.753 218.292 250.753 218.292C251.022 218.175 251.252 217.964 251.405 217.696C251.405 217.696 252.153 216.321 252.901 214.563L252.899 214.56Z" fill="#050000"/>
<path fill-rule="evenodd" clip-rule="evenodd" d="M219.113 204.165C219.113 204.165 219.151 203.657 219.171 202.759C219.171 201.467 219.133 199.415 219.689 196.972C220.034 195.486 220.61 193.873 221.396 192.163C221.703 191.519 222.01 190.85 222.374 190.182C222.738 189.609 222.566 188.851 221.991 188.493C221.416 188.133 220.649 188.307 220.304 188.88C219.806 189.578 219.365 190.266 219 190.966C218.003 192.841 217.428 194.699 217.063 196.375C216.43 199.144 216.353 201.485 216.545 202.933C216.717 204.026 216.986 204.611 216.986 204.611C217.101 205.198 217.676 205.576 218.271 205.453C218.865 205.328 219.23 204.751 219.115 204.164L219.113 204.165ZM226.399 200.041C226.399 200.041 226.437 199.682 226.437 199.052C226.437 198.854 226.418 198.632 226.399 198.387C226.284 196.809 226.092 194.312 226.457 191.8C226.629 190.582 226.955 189.374 227.396 188.247C227.588 187.773 227.76 187.3 228.01 186.865C228.374 186.301 228.221 185.538 227.665 185.164C227.09 184.792 226.342 184.945 225.958 185.511C225.575 186.029 225.21 186.581 224.923 187.179C224.309 188.487 223.983 189.965 223.792 191.424C223.409 194.193 223.523 196.954 223.792 198.676C223.83 198.941 223.869 199.18 223.926 199.387C224.098 200.079 224.271 200.453 224.271 200.453C224.386 201.044 224.961 201.429 225.536 201.316C226.131 201.203 226.514 200.631 226.399 200.041ZM236.409 188.497C236.409 188.497 236.524 188.742 236.792 189.145C236.869 189.27 236.984 189.404 237.099 189.55C237.847 190.467 239.074 191.891 240.052 193.586C240.531 194.389 240.915 195.26 241.26 196.125C241.394 196.491 241.567 196.84 241.682 197.21C241.816 197.872 242.468 198.299 243.12 198.161C243.791 198.023 244.213 197.373 244.079 196.711C244.002 196.105 243.868 195.499 243.676 194.905C243.235 193.59 242.506 192.347 241.759 191.227C240.743 189.682 239.688 188.33 238.883 187.62C238.327 187.118 237.924 186.928 237.924 186.928C237.483 186.512 236.793 186.525 236.371 186.957C235.968 187.39 235.968 188.079 236.409 188.497ZM204.77 216.87C204.77 216.87 204.041 223.476 203.811 231.792C203.715 234.964 203.734 238.382 203.849 241.776C204.041 247.958 204.616 254.056 205.881 258.468C207.818 265.254 213.398 270.385 219.975 273.355C226.744 276.402 234.548 277.155 240.435 275.215C244.922 273.737 250.329 270.985 254.509 266.617C258.114 262.838 260.798 257.862 261.22 251.467C261.508 247.195 261.527 241.734 261.373 236.298C261.047 224.943 260.088 213.693 260.088 213.693C260.05 213.018 259.455 212.514 258.784 212.566C258.094 212.618 257.595 213.206 257.653 213.881C257.653 213.881 258.42 225.075 258.669 236.367C258.803 241.715 258.822 247.086 258.535 251.289C258.171 256.974 255.774 261.396 252.552 264.755C248.717 268.776 243.732 271.294 239.59 272.653C234.259 274.411 227.203 273.66 221.086 270.904C215.218 268.264 210.195 263.769 208.45 257.731C207.223 253.491 206.686 247.63 206.475 241.689C206.36 238.341 206.398 234.97 206.418 231.843C206.514 223.611 206.936 217.057 206.936 217.057C206.994 216.457 206.533 215.93 205.939 215.878C205.344 215.826 204.808 216.271 204.769 216.869L204.77 216.87Z" fill="#050000"/>
<path fill-rule="evenodd" clip-rule="evenodd" d="M225.057 279.022C225.057 279.022 225.172 278.823 225.23 278.403C225.249 278.232 225.211 278.027 225.192 277.803C225.115 276.676 225.039 275.002 224.885 273.968C224.789 273.389 224.674 273.019 224.674 273.019C224.617 272.344 224.022 271.844 223.351 271.901C222.68 271.959 222.181 272.553 222.239 273.228C222.239 273.228 222.181 273.611 222.201 274.196C222.22 275.241 222.431 276.903 222.546 278.029C222.565 278.253 222.565 278.46 222.623 278.627C222.738 279.034 222.891 279.208 222.891 279.208C222.929 279.806 223.466 280.251 224.061 280.199C224.655 280.147 225.115 279.62 225.057 279.022ZM246.993 279.146C246.993 279.146 247.146 278.885 247.242 278.368C247.491 277.139 247.549 274.633 247.99 272.771C248.028 272.597 248.086 272.428 248.124 272.263C248.181 272.006 248.201 271.764 248.258 271.554C248.546 270.937 248.258 270.208 247.645 269.93C247.031 269.652 246.303 269.928 246.034 270.546C245.842 270.849 245.67 271.198 245.516 271.601C245.267 272.307 245.133 273.16 245.018 274.015C244.788 275.52 244.635 277.075 244.635 278.057C244.635 278.207 244.654 278.343 244.673 278.464C244.73 278.876 244.807 279.083 244.807 279.083C244.807 279.683 245.267 280.186 245.862 280.205C246.476 280.222 246.974 279.749 246.993 279.148V279.146ZM220.781 261.214C220.781 261.214 221.529 261.814 222.91 262.466C224.981 263.454 228.471 264.497 232.306 264.525C235.01 264.546 237.943 264.065 240.685 262.527C241.721 261.95 242.718 261.212 243.676 260.322C244.194 259.879 244.251 259.104 243.81 258.591C243.369 258.079 242.583 258.022 242.084 258.464C241.202 259.16 240.301 259.697 239.419 260.155C237.041 261.375 234.606 261.837 232.324 261.829C228.892 261.816 225.843 260.738 223.906 260.046C222.66 259.599 221.874 259.329 221.874 259.329C221.356 259.028 220.685 259.208 220.397 259.728C220.09 260.248 220.263 260.915 220.78 261.214H220.781ZM231.021 242.994C231.021 242.994 230.829 243.573 230.676 244.467C230.484 245.414 230.369 246.705 230.101 247.882C229.947 248.519 229.775 249.125 229.564 249.612C229.449 249.859 229.372 250.08 229.219 250.185C228.874 250.444 228.663 250.862 228.663 251.303C228.682 251.744 228.893 252.154 229.276 252.398C229.276 252.398 230.887 253.468 232.766 253.37C233.265 253.343 233.802 253.253 234.319 253.017C234.932 252.731 235.546 252.275 236.064 251.556C236.505 251.036 236.447 250.262 235.93 249.826C235.412 249.391 234.626 249.456 234.204 249.974C233.897 250.279 233.571 250.428 233.284 250.542C233.054 250.626 232.843 250.672 232.632 250.682C232.421 250.692 232.229 250.676 232.038 250.644C232.211 250.262 232.364 249.841 232.479 249.386C232.882 247.988 233.15 246.291 233.246 245.01C233.265 244.74 233.284 244.488 233.284 244.264C233.284 243.556 233.188 243.123 233.188 243.123C233.226 242.525 232.766 242.009 232.172 241.973C231.577 241.938 231.06 242.397 231.022 242.995L231.021 242.994ZM213.073 228.003C213.073 228.003 213.418 227.827 213.878 227.447C214.588 226.864 215.661 225.875 217.061 225.432C217.943 225.156 218.921 225.114 220.014 225.451C220.417 225.576 220.838 225.71 221.28 225.946C221.855 226.312 222.603 226.147 222.967 225.578C223.331 225.009 223.178 224.247 222.603 223.883C222.028 223.455 221.472 223.133 220.897 222.911C219.229 222.257 217.618 222.414 216.237 222.863C214.377 223.467 212.805 224.64 212.019 225.597C211.521 226.216 211.348 226.69 211.348 226.69C210.984 227.169 211.08 227.852 211.559 228.214C212.038 228.576 212.729 228.482 213.074 228.003H213.073ZM239.055 226.268C239.055 226.268 239.419 226.07 239.956 225.681C240.78 225.087 242.065 224.143 243.848 223.892C244.941 223.739 246.168 223.863 247.587 224.323C248.105 224.49 248.642 224.662 249.198 224.923C249.792 225.247 250.54 225.027 250.866 224.432C251.192 223.837 250.981 223.092 250.387 222.768C249.735 222.365 249.121 222.034 248.508 221.792C246.629 221.052 244.922 221.006 243.465 221.221C241.049 221.578 239.189 222.713 238.23 223.7C237.578 224.377 237.348 224.925 237.348 224.925C236.965 225.399 237.06 226.083 237.52 226.453C237.999 226.823 238.69 226.739 239.054 226.267L239.055 226.268ZM259.476 279.833C259.476 279.833 259.859 279.54 260.454 278.813C260.607 278.614 260.78 278.372 260.972 278.096C261.605 277.095 262.391 275.601 263.196 273.598C264.04 271.5 264.979 268.833 265.593 265.481C265.727 264.812 265.804 264.116 265.881 263.393C266.015 262.726 265.555 262.089 264.903 261.97C264.232 261.851 263.599 262.298 263.465 262.963C263.273 263.822 263.062 264.631 262.87 265.415C262.333 267.574 261.835 269.451 261.279 271.043C260.282 273.904 259.189 275.814 258.556 277.018C258.058 277.921 257.846 278.397 257.846 278.397C257.463 278.848 257.501 279.536 257.942 279.931C258.402 280.328 259.092 280.284 259.476 279.833ZM266.686 287.501C266.686 287.501 266.954 289.152 267.76 291.081C268.45 292.776 269.582 294.634 271.001 295.9C272.823 297.518 275.124 298.237 277.942 296.778C279.879 295.781 281.451 294.318 282.966 292.92C284.366 291.628 285.708 290.377 287.376 289.852C288.929 289.359 290.732 289.614 293.186 290.947C294.317 291.563 295.583 292.374 296.983 293.472C297.52 293.903 298.287 293.827 298.728 293.305C299.15 292.782 299.073 292.009 298.556 291.577C297.06 290.294 295.737 289.307 294.51 288.599C291.212 286.703 288.681 286.612 286.552 287.284C284.903 287.809 283.465 288.868 282.046 290.112C280.397 291.571 278.806 293.307 276.715 294.396C275.104 295.23 273.8 294.816 272.765 293.905C271.615 292.891 270.771 291.345 270.119 290.012C269.295 288.342 268.777 286.956 268.777 286.956C268.643 286.375 268.048 286.024 267.454 286.176C266.879 286.326 266.534 286.92 266.687 287.501H266.686ZM176.123 298.275C176.123 298.275 175.816 296.893 176.008 295.452C176.104 294.729 176.315 293.964 176.967 293.442C177.907 292.686 179.556 292.472 182.298 293.034C188.894 294.359 194.532 295.956 198.232 295.337C201.108 294.856 203.026 293.28 203.601 289.79C203.716 289.125 203.275 288.486 202.604 288.367C201.933 288.246 201.3 288.691 201.185 289.358C200.763 291.483 199.574 292.413 197.81 292.677C194.32 293.2 189.028 291.647 182.835 290.401C178.923 289.628 176.641 290.297 175.299 291.383C174.072 292.394 173.497 293.812 173.42 295.205C173.305 297.165 174.053 298.969 174.053 298.969C174.245 299.539 174.878 299.845 175.434 299.654C176.009 299.462 176.315 298.845 176.123 298.275ZM205.729 299.269C205.729 299.269 206.937 301.15 209.008 303.79C211.175 306.574 214.339 310.175 217.675 313.504C220.954 316.75 224.463 319.696 227.608 321.324C230.983 323.052 234.377 322.774 237.675 321.326C241.433 319.681 245.076 316.488 248.279 313.242C250.484 311.002 252.478 308.742 254.223 307.075C254.721 306.613 254.741 305.836 254.28 305.34C253.82 304.845 253.053 304.817 252.554 305.279C250.982 306.7 249.16 308.543 247.243 310.475C244.731 312.985 241.989 315.646 239.113 317.495C235.796 319.612 232.306 320.703 228.854 318.925C225.901 317.406 222.622 314.626 219.554 311.604C216.275 308.358 213.245 304.787 211.021 302.151C208.892 299.651 207.474 297.977 207.474 297.977C207.11 297.494 206.438 297.39 205.959 297.747C205.48 298.104 205.365 298.786 205.729 299.269Z" fill="#050000"/>
<path fill-rule="evenodd" clip-rule="evenodd" d="M211.999 307.297C211.999 307.297 212.536 309.161 213.59 312.029C213.82 312.65 214.089 313.314 214.376 314.017C216.063 318.245 218.575 323.854 221.471 329.054C224.443 334.396 227.856 339.28 231.269 341.884C234.682 344.478 238.095 344.708 241.144 343.805C243.56 343.094 245.765 341.657 247.568 340.091C250.521 337.516 252.343 334.657 252.343 334.657C252.707 334.095 252.573 333.332 251.998 332.954C251.442 332.578 250.675 332.728 250.311 333.29L245.824 338.066C244.29 339.368 242.43 340.622 240.397 341.222C238.077 341.903 235.488 341.705 232.9 339.738C229.717 337.314 226.591 332.718 223.811 327.748C220.973 322.651 218.538 317.137 216.793 313.018C216.505 312.33 216.237 311.68 215.969 311.081C214.799 308.326 214.052 306.571 214.052 306.571C213.86 306.003 213.228 305.706 212.671 305.908C212.096 306.107 211.808 306.729 212 307.296L211.999 307.297ZM174.819 304.517C174.819 304.517 171.425 311.098 168.606 319.565C166.938 324.566 165.519 330.226 164.982 335.538C164.1 344.539 160.572 379.665 158.213 406.109C156.852 421.232 155.874 433.529 155.931 436.549C156.027 440.081 154.493 441.517 153.112 442.721C151.981 443.712 150.964 444.625 150.466 445.914C150.102 446.871 149.987 448.042 150.409 449.615C150.888 451.525 150.447 453.281 149.699 454.739C148.376 457.356 146.113 459.059 146.113 459.059C145.576 459.464 145.461 460.232 145.864 460.775C146.267 461.32 147.034 461.433 147.571 461.03C147.571 461.03 151.061 458.47 152.537 454.633C153.17 452.949 153.438 451.03 152.94 448.975C152.748 448.231 152.729 447.642 152.844 447.15C153.093 446.174 153.86 445.614 154.647 444.941C155.721 444.023 156.871 443.006 157.657 441.426C158.271 440.201 158.673 438.632 158.635 436.487C158.558 433.498 159.555 421.324 160.898 406.35C163.256 379.916 166.746 344.797 167.628 335.8C168.011 331.723 169.009 327.44 170.159 323.421C170.907 320.846 171.712 318.38 172.517 316.14C174.722 309.924 176.774 305.475 176.774 305.475C177.043 304.936 176.812 304.282 176.276 304.02C175.739 303.755 175.087 303.978 174.819 304.519V304.517ZM299.763 298.998C299.763 298.998 303.655 306.655 307.337 318.499C309.159 324.39 310.98 331.308 312.15 338.867C314.815 355.814 319.36 382.058 322.485 403.321C324.172 414.713 325.438 424.668 325.783 430.977C325.917 433.215 326.876 434.344 328.103 434.954C328.851 435.316 329.714 435.476 330.653 435.51C331.689 435.548 332.801 435.429 333.778 435.424C334.219 435.42 334.468 435.708 334.622 436.099C334.795 436.482 334.871 436.947 334.891 437.458C334.968 438.66 334.757 440.095 334.296 441.5C333.682 443.477 334.239 444.631 335.236 445.435C335.926 445.983 336.923 446.34 338.035 446.651C339.071 446.942 340.24 447.182 341.045 447.838C343.653 449.976 346.241 454.118 348.523 459.558C350.92 465.32 352.952 472.526 354.084 480.47C354.18 481.141 354.794 481.611 355.465 481.517C356.136 481.423 356.615 480.804 356.52 480.133C355.427 471.938 353.433 464.486 350.978 458.536C348.524 452.571 345.609 448.097 342.733 445.756C341.832 445.004 340.605 444.575 339.377 444.232C338.438 443.964 337.498 443.797 336.923 443.34C336.674 443.137 336.712 442.818 336.866 442.316C337.729 439.607 337.825 436.803 337.115 435.068C336.501 433.593 335.389 432.721 333.759 432.731C332.954 432.737 332.072 432.819 331.209 432.825C330.499 432.829 329.828 432.804 329.292 432.539C328.793 432.288 328.525 431.751 328.487 430.829C328.123 424.465 326.857 414.419 325.151 402.93C322.026 381.657 317.462 355.409 314.777 338.455C313.569 330.756 311.767 323.69 309.83 317.71C305.938 305.666 301.7 297.983 301.7 297.983C301.412 297.452 300.761 297.249 300.223 297.53C299.686 297.812 299.494 298.471 299.763 299.001V298.998ZM166.612 439.226C166.612 439.226 167.475 435.247 175.624 436.241C177.695 436.492 180.168 437.035 183.16 438.003C189.545 440.06 198.174 443.993 209.871 450.965C229.774 462.805 246.284 464.207 259.936 459.665C269.888 456.352 278.344 449.872 285.439 441.825C289.983 436.673 293.953 430.874 297.462 424.913C297.807 424.332 297.615 423.578 297.021 423.233C296.446 422.886 295.698 423.078 295.353 423.661C291.863 429.44 287.894 435.036 283.426 440.04C276.619 447.687 268.585 453.944 259.074 457.109C246.035 461.454 230.273 459.978 211.233 448.662C195.951 439.587 185.788 435.537 179 434.172C171.771 432.717 168.185 434.201 166.421 435.714C164.638 437.221 164.465 438.909 164.465 438.909C164.369 439.503 164.791 440.058 165.386 440.146C165.98 440.232 166.517 439.822 166.613 439.228L166.612 439.226Z" fill="#050000"/>
<path fill-rule="evenodd" clip-rule="evenodd" d="M184.848 384.459C184.848 384.459 185.538 390.53 187.552 398.397C188.626 402.61 190.083 407.329 191.943 411.919C194.474 418.139 197.753 424.108 201.914 428.281C206.056 432.446 209.181 437.506 212.614 442.016C216.43 447.017 220.629 451.346 226.765 453.335C232.517 455.195 240.015 455.019 250.599 451.224C260.915 447.529 268.777 442.394 274.663 437.111C287.05 425.984 290.77 414.268 290.77 414.268C290.981 413.626 290.636 412.932 289.984 412.721C289.332 412.512 288.642 412.863 288.431 413.507C288.431 413.507 284.711 424.556 272.861 435.106C267.185 440.168 259.63 445.131 249.698 448.688C239.881 452.207 232.939 452.494 227.589 450.77C221.99 448.958 218.232 444.943 214.761 440.387C211.252 435.787 208.05 430.64 203.812 426.393C199.881 422.454 196.794 416.796 194.397 410.923C192.575 406.448 191.156 401.836 190.044 397.74C187.954 390.06 186.995 384.16 186.995 384.16C186.918 383.566 186.362 383.149 185.768 383.232C185.173 383.314 184.752 383.865 184.848 384.459Z" fill="#050000"/>
<path fill-rule="evenodd" clip-rule="evenodd" d="M184.177 320.474C184.177 320.474 185.308 327.452 187.494 337.716C189.852 348.676 193.438 363.374 197.733 377.391C202.124 391.713 207.34 405.308 212.958 413.522C220.532 424.584 227.032 427.247 232.555 426.078C235.604 425.43 238.442 423.578 241.069 421.129C244.386 418.044 247.397 414.011 250.273 410.55C253.283 406.905 256.831 401.147 260.148 395.101C266.572 383.404 272.247 370.668 272.247 370.668C272.515 370.051 272.247 369.324 271.633 369.044C271.019 368.764 270.291 369.038 270.003 369.656C270.003 369.656 264.212 382.219 257.789 393.799C254.529 399.665 251.135 405.287 248.202 408.83C245.403 412.207 242.469 416.149 239.228 419.158C236.985 421.248 234.607 422.889 231.999 423.442C227.167 424.464 221.798 421.666 215.183 411.998C209.68 403.956 204.618 390.626 200.284 376.605C195.989 362.665 192.518 348.027 190.045 337.155C187.725 326.969 186.306 320.082 186.306 320.082C186.21 319.491 185.635 319.098 185.041 319.208C184.446 319.317 184.063 319.885 184.178 320.475L184.177 320.474ZM278.459 399.446C278.459 399.446 279.207 398.09 280.338 395.73C280.702 394.99 281.086 394.148 281.508 393.218C284.269 387.118 288.411 377.33 291.958 367.545C293.914 362.197 295.697 356.853 296.905 352.077C297.519 349.594 297.979 347.262 298.267 345.176C298.363 344.507 297.903 343.878 297.251 343.774C296.58 343.67 295.947 344.129 295.851 344.798C295.487 346.798 294.95 349.018 294.298 351.398C293.032 356.081 291.345 361.357 289.428 366.627C285.9 376.351 281.739 386.049 279.112 392.158C278.709 393.092 278.345 393.939 278.038 394.697C277.041 397.1 276.485 398.528 276.485 398.528C276.236 399.073 276.466 399.721 277.022 399.974C277.559 400.227 278.211 399.991 278.46 399.447L278.459 399.446ZM206.324 286.418C206.324 286.418 206.784 286.851 207.647 287.427C208.03 287.692 208.529 287.95 209.047 288.257C211.712 289.81 215.624 292.136 218.136 293.501C219.517 294.257 220.456 294.705 220.456 294.705C221.051 295.042 221.798 294.839 222.144 294.252C222.47 293.665 222.278 292.916 221.684 292.578C221.684 292.578 220.821 291.982 219.479 291.169C217.044 289.694 213.055 287.48 210.371 285.959C209.834 285.656 209.374 285.361 208.952 285.156C208.013 284.709 207.418 284.531 207.418 284.531C206.9 284.232 206.229 284.412 205.922 284.932C205.634 285.454 205.806 286.119 206.324 286.418ZM247.511 293.871C247.511 293.871 248.086 293.698 248.949 293.259C249.332 293.06 249.773 292.768 250.253 292.473C252.746 290.981 256.408 288.809 258.652 287.365C259.898 286.567 260.704 285.983 260.704 285.983C261.279 285.63 261.452 284.873 261.107 284.296C260.743 283.719 259.995 283.537 259.42 283.889C259.42 283.889 258.538 284.328 257.253 285.068C254.952 286.406 251.328 288.688 248.874 290.211C248.395 290.512 247.935 290.765 247.57 291.024C246.803 291.592 246.381 292.015 246.381 292.015C245.863 292.328 245.71 292.999 246.017 293.511C246.343 294.023 247.014 294.186 247.513 293.871H247.511ZM204.099 241.752C204.099 241.752 203.984 243.146 203.927 245.376V246.925C203.965 250.198 204.119 254.622 204.425 258.984C204.732 263.26 205.211 267.475 205.959 270.52C206.688 273.553 207.819 276.01 209.008 277.95C209.449 278.692 209.909 279.365 210.388 279.954C212.574 282.734 214.606 283.902 214.606 283.902C215.181 284.262 215.929 284.09 216.294 283.517C216.658 282.944 216.486 282.184 215.911 281.826C215.911 281.826 213.495 280.187 211.29 276.543C210.235 274.796 209.219 272.603 208.567 269.887C207.858 266.957 207.417 262.902 207.11 258.789C206.784 254.48 206.65 250.109 206.554 246.876C206.535 246.33 206.516 245.818 206.497 245.342C206.382 243.143 206.286 241.766 206.286 241.766C206.286 241.166 205.807 240.675 205.193 240.671C204.599 240.667 204.119 241.152 204.1 241.752H204.099ZM254.548 279.076C254.548 279.076 255.238 278.777 256.235 277.571C256.465 277.276 256.714 276.908 256.983 276.472C257.808 275.068 258.728 272.879 259.495 269.584C260.185 266.591 260.837 262.652 260.933 257.481C260.952 256.515 260.914 255.506 260.895 254.453C260.895 253.776 260.358 253.22 259.687 253.212C258.997 253.204 258.441 253.749 258.441 254.426C258.384 255.454 258.307 256.434 258.249 257.375C257.961 262.326 257.52 266.109 256.868 268.982C256.197 271.939 255.372 273.891 254.682 275.181C254.49 275.54 254.318 275.846 254.164 276.107C253.685 276.895 253.416 277.217 253.416 277.217C252.898 277.528 252.745 278.199 253.052 278.713C253.359 279.225 254.03 279.389 254.548 279.076ZM287.797 235.583C287.797 235.583 287.912 239.054 288.813 244.035C289.12 245.73 289.542 247.594 290.059 249.559C291.171 253.797 292.782 258.483 295.064 262.863C297.422 267.384 299.666 270.798 301.564 273.309C304.057 276.578 305.974 278.36 306.837 279.086C307.086 281.788 308.199 293.73 308.831 304.813C308.965 307.225 309.061 309.597 309.157 311.823C309.329 316.074 309.406 319.788 309.195 322.229C309.137 322.904 309.636 323.502 310.307 323.564C310.978 323.627 311.572 323.131 311.649 322.456C311.956 319.451 311.956 314.55 311.745 309.078C311.208 295.458 309.463 278.26 309.463 278.26C309.425 277.875 309.233 277.526 308.907 277.299C308.907 277.299 306.798 275.752 303.711 271.683C301.87 269.263 299.704 265.977 297.441 261.624C295.236 257.432 293.702 252.938 292.609 248.882C292.091 246.98 291.708 245.17 291.363 243.534C290.347 238.75 289.982 235.431 289.982 235.431C289.925 234.831 289.407 234.378 288.812 234.42C288.218 234.462 287.757 234.982 287.796 235.582L287.797 235.583Z" fill="#050000"/>
<path fill-rule="evenodd" clip-rule="evenodd" d="M303.233 240.703C303.233 240.703 303.099 241.656 302.984 243.274C302.946 243.784 302.927 244.359 302.907 244.99C302.792 249.193 302.792 255.87 303.061 262.159C303.214 265.833 303.425 269.382 303.885 272.23C304.153 273.985 304.518 275.478 304.94 276.6C305.151 277.242 305.841 277.593 306.474 277.38C307.126 277.167 307.471 276.473 307.26 275.831C306.953 274.803 306.742 273.436 306.531 271.848C306.301 269.998 306.09 267.854 305.937 265.572C305.496 258.773 305.515 250.773 305.534 245.738C305.534 245.009 305.553 244.342 305.534 243.75C305.496 241.888 305.4 240.77 305.4 240.77C305.419 240.17 304.94 239.666 304.345 239.648C303.751 239.629 303.252 240.101 303.233 240.703ZM194.704 102.886C194.704 102.886 194.608 103.206 194.647 103.803C194.724 104.558 195.203 105.691 195.951 106.875C196.43 107.631 197.044 108.441 197.907 109.083C198.252 109.327 198.617 109.532 199.019 109.724C199.594 110.081 200.342 109.904 200.706 109.329C201.051 108.754 200.879 107.997 200.303 107.64C200.054 107.441 199.843 107.21 199.632 107.007C199.057 106.479 198.577 105.953 198.213 105.413C197.638 104.541 197.408 103.679 197.197 103.161C197.044 102.795 196.871 102.648 196.871 102.648C196.794 102.051 196.258 101.62 195.663 101.686C195.069 101.752 194.628 102.289 194.704 102.886ZM279.917 110.375C279.917 110.375 280.205 110.435 280.78 110.403C280.933 110.394 281.087 110.35 281.278 110.299C281.968 110.107 282.85 109.65 283.771 108.855C284.691 108.044 285.746 106.867 286.379 105.013C286.494 104.672 286.571 104.309 286.647 103.921C286.858 103.276 286.513 102.585 285.861 102.379C285.209 102.173 284.519 102.529 284.327 103.174C284.154 103.55 283.963 103.879 283.809 104.205C283.368 105.098 282.946 105.814 282.467 106.351C281.662 107.253 280.818 107.615 280.281 107.864C279.936 108.027 279.802 108.202 279.802 108.202C279.208 108.232 278.747 108.744 278.767 109.343C278.805 109.943 279.304 110.405 279.917 110.375ZM270.962 53.3677C270.713 53.6697 270.617 54.0917 270.713 54.4907H270.579C270.579 54.4907 270.982 56.1007 271.768 56.8797C272.286 57.4007 272.938 57.6217 273.666 57.4897C273.915 57.4447 274.587 57.1607 275.488 56.6297C276.792 55.8507 278.767 54.5057 280.723 53.1267C283.081 51.4607 285.382 49.7237 286.399 48.7857C286.878 48.3537 287.147 47.9907 287.243 47.7977C287.646 46.9257 287.626 45.8797 287.051 44.8767C286.591 44.0367 285.728 43.2027 284.424 42.6377C284.041 42.4657 283.504 42.4067 282.833 42.6227C282.2 42.8357 281.28 43.3897 280.244 44.1897C278.173 45.8037 275.431 48.3937 273.494 50.4797C271.979 52.1407 270.963 53.4637 270.963 53.4637V53.3697L270.962 53.3677ZM273.244 54.9267C273.397 54.9127 273.608 54.9347 273.532 55.0207C273.417 55.1417 273.321 55.0747 273.244 54.9267ZM283.598 45.2177C283.924 45.3837 284.173 45.5757 284.384 45.7867C284.653 46.0487 284.882 46.3087 284.825 46.5557C284.691 46.6767 284.365 46.9987 284.039 47.2627C282.908 48.2067 281.048 49.5867 279.169 50.9277C277.271 52.2707 275.334 53.5607 274.088 54.3487C273.762 54.5487 273.398 54.7607 273.206 54.8737C273.149 54.7617 273.11 54.6167 273.072 54.4737C273.57 54.0147 274.395 53.2457 275.373 52.3117C276.619 51.1177 278.077 49.6277 279.515 48.3277C280.723 47.2207 281.912 46.2277 282.851 45.6187C283.1 45.4557 283.426 45.2987 283.599 45.2187L283.598 45.2177ZM249.908 75.5247C249.908 75.5247 250.311 75.2577 250.886 74.8227C251.787 74.1457 253.206 73.1147 255.047 73.4087C256.14 73.5817 257.29 74.2207 258.613 75.4317C259.073 75.8387 259.553 76.2807 260.032 76.8197C260.454 77.3507 261.221 77.4397 261.758 77.0187C262.276 76.5977 262.372 75.8257 261.95 75.2957C261.471 74.6067 260.991 74.0037 260.493 73.4987C258.748 71.7057 256.984 70.9757 255.469 70.7437C252.65 70.3167 250.33 71.6317 249.141 72.8637C248.451 73.5937 248.163 74.2297 248.163 74.2297C247.799 74.7117 247.914 75.3937 248.393 75.7517C248.872 76.1097 249.543 76.0067 249.908 75.5247ZM213.552 80.3577C213.552 80.3577 213.859 80.0787 214.3 79.5867C214.971 78.8307 216.045 77.6647 217.809 77.1787C218.883 76.8887 220.148 76.8677 221.682 77.1527C222.238 77.2527 222.813 77.3567 223.427 77.5387C224.06 77.7707 224.769 77.4417 224.999 76.8057C225.229 76.1697 224.903 75.4647 224.27 75.2327C223.56 74.9277 222.909 74.6817 222.257 74.5217C220.225 74.0157 218.499 74.1827 217.099 74.5777C214.606 75.2777 212.938 76.8097 212.19 78.0207C211.692 78.8467 211.576 79.4667 211.576 79.4667C211.327 80.0147 211.576 80.6587 212.113 80.9047C212.669 81.1497 213.321 80.9047 213.551 80.3557L213.552 80.3577ZM228.72 122.349C228.72 122.349 229.41 122.877 230.829 123.386C232.67 124.054 235.776 124.609 239.726 124.36C241.989 124.216 244.577 123.82 247.358 122.848C248.355 122.499 249.352 122.055 250.407 121.554C251.021 121.283 251.308 120.56 251.04 119.939C250.772 119.318 250.043 119.034 249.429 119.305C248.432 119.697 247.454 120.004 246.514 120.292C243.944 121.083 241.624 121.529 239.554 121.668C236.026 121.906 233.284 121.292 231.577 120.877C230.388 120.587 229.717 120.414 229.717 120.414C229.18 120.139 228.528 120.349 228.24 120.883C227.971 121.417 228.183 122.074 228.719 122.349H228.72ZM236.37 101.8C236.37 101.8 236.121 102.435 235.814 103.366C235.584 104.045 235.354 104.888 235.009 105.684C234.683 106.456 234.28 107.202 233.763 107.681C232.133 109.186 232.095 111.251 233.456 112.38C234.146 112.957 235.393 113.376 237.291 113.066C237.962 112.958 238.748 112.785 239.611 112.452C240.244 112.207 240.915 111.871 241.663 111.469C242.277 111.181 242.545 110.449 242.257 109.837C241.969 109.225 241.241 108.961 240.627 109.249C239.956 109.516 239.342 109.708 238.805 109.889C237.731 110.238 236.888 110.449 236.216 110.477C235.89 110.49 235.622 110.47 235.411 110.409C235.296 110.38 235.2 110.405 235.181 110.329C235.162 110.098 235.353 109.871 235.584 109.652C236.351 108.939 236.984 107.869 237.463 106.723C237.846 105.797 238.192 104.84 238.345 104.026C238.556 102.935 238.517 102.149 238.517 102.149C238.613 101.556 238.21 100.997 237.616 100.9C237.041 100.804 236.466 101.208 236.37 101.8Z" fill="#050000"/>
<path d="M246.188 237.159C247.417 237.159 248.413 235.717 248.413 233.938C248.413 232.159 247.417 230.717 246.188 230.717C244.959 230.717 243.963 232.159 243.963 233.938C243.963 235.717 244.959 237.159 246.188 237.159ZM217.176 237.785C218.337 237.785 219.279 236.432 219.279 234.762C219.279 233.092 218.337 231.739 217.176 231.739C216.015 231.739 215.073 233.092 215.073 234.762C215.073 236.432 216.015 237.785 217.176 237.785ZM256.044 94.5281C257.609 94.5281 258.877 92.4968 258.877 89.9911C258.877 87.4854 257.609 85.4541 256.044 85.4541C254.479 85.4541 253.211 87.4854 253.211 89.9911C253.211 92.4968 254.479 94.5281 256.044 94.5281ZM220.781 95.5711C222.099 95.5711 223.168 93.59 223.168 91.1461C223.168 88.7023 222.099 86.7211 220.781 86.7211C219.463 86.7211 218.394 88.7023 218.394 91.1461C218.394 93.59 219.463 95.5711 220.781 95.5711Z" fill="#050000"/>
<path fill-rule="evenodd" clip-rule="evenodd" d="M106.998 481.443C107.017 482.074 107.554 482.576 108.187 482.578C108.187 482.578 119.96 482.705 130.161 482.766C137.946 482.812 144.81 482.816 144.81 482.816C145.174 482.818 145.52 482.674 145.769 482.419C146.038 482.166 146.172 481.819 146.172 481.46L145.999 440.405C145.922 428.323 144.427 420.68 142.087 415.875C138.616 408.763 133.343 407.442 127.667 407.475C121.723 407.511 115.395 408.819 111.177 414.878C108.607 418.569 106.805 424.09 106.46 432.337C106.23 437.579 106.192 444.757 106.268 452.008C106.422 466.579 106.998 481.443 106.998 481.443ZM109.356 480.225C109.26 476.482 109.011 464.13 108.953 451.988C108.934 444.784 108.953 437.655 109.164 432.449C109.49 424.896 111.062 419.815 113.421 416.436C117.045 411.217 122.567 410.233 127.668 410.204C132.385 410.179 136.757 411.199 139.633 417.074C141.857 421.645 143.2 428.928 143.276 440.421L143.449 480.105C141.071 480.101 135.875 480.097 130.161 480.113C121.877 480.138 112.559 480.201 109.356 480.224V480.225Z" fill="#050000"/>
<path fill-rule="evenodd" clip-rule="evenodd" d="M120.439 409.831C120.439 409.831 119.883 407.992 120.209 406.337C120.362 405.534 120.765 404.767 121.839 404.475C123.756 403.944 126.153 403.746 128.052 404.429C129.068 404.791 129.874 405.434 130.391 406.458C130.698 407.081 130.985 407.793 131.081 408.709C131.062 409.278 131.522 409.75 132.097 409.76C132.653 409.77 133.133 409.315 133.133 408.746C133.305 407.442 133.19 406.336 132.845 405.4C132.404 404.173 131.541 403.285 130.563 402.627C128.013 400.93 124.082 401.007 121.11 401.839C119.269 402.361 118.291 403.509 117.812 404.842C117.544 405.628 117.429 406.485 117.467 407.302C117.544 409.083 118.215 410.635 118.215 410.635C118.445 411.247 119.116 411.563 119.73 411.341C120.344 411.121 120.65 410.444 120.44 409.832L120.439 409.831Z" fill="#050000"/>
<path fill-rule="evenodd" clip-rule="evenodd" d="M124.006 402.485C124.006 402.485 124.064 401.946 124.044 401.158C124.025 400.587 123.967 399.889 123.91 399.179C123.872 398.621 123.795 398.059 123.738 397.545C123.642 396.895 123.527 396.339 123.489 395.969C123.489 395.269 122.933 394.702 122.223 394.702C121.533 394.702 120.958 395.27 120.958 395.969C120.92 396.375 120.881 396.997 120.862 397.716C120.862 398.247 120.862 398.826 120.9 399.4C120.938 400.119 121.015 400.827 121.092 401.398C121.207 402.19 121.341 402.721 121.341 402.721C121.398 403.461 122.051 404.008 122.798 403.942C123.527 403.877 124.083 403.225 124.006 402.485Z" fill="#050000"/>
<path fill-rule="evenodd" clip-rule="evenodd" d="M118.138 397.413C118.195 397.421 118.272 397.423 118.33 397.421C118.33 397.421 121.686 397.367 124.888 397.101C126.594 396.959 128.244 396.746 129.375 396.491C131.83 395.929 133.018 393.695 132.807 391.529C132.596 389.539 131.235 387.621 128.646 387.257C126.575 386.977 124.063 387.021 121.877 387.307C119.845 387.575 118.1 388.072 117.237 388.611C116.719 388.929 116.221 389.468 115.837 390.178C115.243 391.292 114.897 392.822 115.07 394.124C115.3 395.817 116.24 397.165 118.138 397.34V397.415V397.413ZM118.215 394.769C117.678 394.573 117.659 393.898 117.716 393.283C117.754 392.698 117.946 392.1 118.195 391.617C118.329 391.36 118.483 391.134 118.674 391.026C119.498 390.552 121.282 390.271 123.238 390.131C124.906 390.01 126.709 390.022 128.223 390.246C129.182 390.384 129.719 391.09 129.795 391.836C129.872 392.574 129.527 393.378 128.702 393.575C127.667 393.824 126.152 394.016 124.618 394.185C121.493 394.526 118.214 394.735 118.214 394.735V394.77L118.215 394.769Z" fill="#050000"/>
<path fill-rule="evenodd" clip-rule="evenodd" d="M128.665 402.579C128.665 402.579 128.722 402.017 128.703 401.206C128.684 400.612 128.646 399.885 128.569 399.16C128.531 398.569 128.454 397.981 128.377 397.465C128.223 396.485 128.07 395.776 128.07 395.776C128.013 395.078 127.399 394.555 126.709 394.608C126.019 394.662 125.482 395.271 125.539 395.969C125.539 395.969 125.501 396.696 125.501 397.685C125.501 398.207 125.52 398.799 125.558 399.392C125.615 400.119 125.673 400.844 125.75 401.432C125.865 402.235 125.999 402.784 125.999 402.784C126.056 403.524 126.689 404.078 127.437 404.023C128.166 403.965 128.723 403.319 128.665 402.579ZM109.644 427.472C109.644 427.472 112.079 427.257 116.144 427.042C118.809 426.902 122.146 426.758 125.962 426.703C128.512 426.665 131.254 426.659 134.15 426.713C136.777 426.763 139.519 426.842 142.338 427.02C143.028 427.078 143.642 426.56 143.699 425.862C143.756 425.166 143.239 424.552 142.549 424.493C139.711 424.194 136.912 423.97 134.246 423.841C131.312 423.701 128.513 423.659 125.924 423.682C122.051 423.717 118.657 423.887 115.953 424.092C111.792 424.41 109.319 424.803 109.319 424.803C108.571 424.893 108.054 425.564 108.13 426.301C108.226 427.039 108.897 427.563 109.645 427.473L109.644 427.472ZM108.896 475.449C108.896 475.449 111.485 474.701 115.914 474.04C118.809 473.609 122.491 473.214 126.728 473.116C129.528 473.053 132.557 473.108 135.798 473.36C138.655 473.581 141.666 473.931 144.81 474.514C145.481 474.656 146.152 474.213 146.306 473.527C146.44 472.842 145.999 472.171 145.309 472.031C142.107 471.31 139 470.804 136.067 470.497C132.711 470.15 129.567 470.044 126.671 470.096C122.261 470.175 118.445 470.61 115.454 471.12C110.756 471.92 108.053 472.892 108.053 472.892C107.343 473.122 106.96 473.881 107.19 474.587C107.42 475.293 108.187 475.68 108.896 475.45V475.449ZM304.345 480.933C304.422 481.583 305.016 482.07 305.707 482.057L346.051 481.407C346.837 481.39 347.47 480.751 347.489 479.963C347.489 479.963 347.604 474.498 347.547 469.304C347.528 466.56 347.451 463.891 347.317 462.125C347.029 458.526 346.301 455.661 343.405 453.832C341.641 452.714 338.937 451.978 334.757 451.855C328.774 451.686 320.433 451.976 314.182 453.027C311.708 453.445 309.542 453.986 307.95 454.651C306.723 455.169 305.783 455.788 305.227 456.448C304.748 456.998 304.345 457.859 304.057 458.975C303.712 460.352 303.52 462.179 303.444 464.204C303.195 471.312 304.345 480.944 304.345 480.944V480.933ZM306.895 479.489C306.684 477.146 306.224 471.616 306.262 466.63C306.281 464.252 306.416 462.003 306.741 460.314C306.933 459.451 307.105 458.757 307.451 458.374C307.892 457.864 308.736 457.484 309.829 457.112C311.804 456.433 314.488 455.935 317.48 455.576C323.098 454.901 329.714 454.73 334.68 454.878C338.093 454.978 340.337 455.472 341.794 456.389C343.846 457.683 344.095 459.825 344.306 462.372C344.459 464.086 344.517 466.675 344.555 469.336C344.612 472.885 344.593 476.561 344.574 478.507L306.895 479.489ZM354.468 480.141C354.449 480.498 354.583 480.843 354.813 481.1C355.043 481.357 355.369 481.505 355.714 481.512C355.714 481.512 370.191 481.828 380.776 481.825C385.071 481.823 388.753 481.766 390.536 481.62C391.265 481.561 391.744 481.465 391.974 481.382C392.243 481.288 392.511 481.117 392.76 480.807C392.99 480.506 393.297 479.825 393.47 478.771C393.911 476.226 394.103 470.7 394.103 464.129C394.084 449.79 393.067 430.458 391.687 426.403C390.671 423.433 388.466 421.172 385.685 419.607C381.85 417.429 376.903 416.616 372.972 416.982C369.06 417.352 364.094 418.618 360.566 421.256C357.997 423.162 356.175 425.762 355.83 429.198C355.619 431.209 355.408 437.267 355.197 444.542C354.794 459.648 354.468 480.048 354.468 480.142V480.141ZM390.44 478.68C390.152 478.705 389.75 478.722 389.27 478.749C387.314 478.854 384.246 478.91 380.756 478.937C372.089 479.002 360.795 478.883 357.037 478.837C357.152 474.036 357.574 457.428 358.015 444.627C358.245 437.45 358.494 431.477 358.705 429.494C358.974 426.934 360.393 425.032 362.31 423.619C365.435 421.314 369.807 420.271 373.259 419.96C376.097 419.701 379.529 420.154 382.54 421.412C385.378 422.609 387.851 424.534 388.829 427.379C389.692 429.91 390.344 438.606 390.746 448.182C391.187 459.152 391.264 471.265 390.727 476.789C390.67 477.514 390.535 478.242 390.439 478.68H390.44Z" fill="#050000"/>
<path fill-rule="evenodd" clip-rule="evenodd" d="M365.973 419.938C365.973 419.938 365.628 417.927 365.762 416.015C365.8 415.421 365.877 414.838 366.069 414.349C366.165 414.081 366.28 413.82 366.529 413.741C367.833 413.327 370.556 413.078 373.24 413.014C374.966 412.974 376.691 413.012 378.034 413.185C378.705 413.273 379.28 413.359 379.606 413.542C379.836 413.665 379.951 413.914 380.066 414.188C380.219 414.618 380.315 415.114 380.373 415.613C380.546 417.249 380.316 418.919 380.316 418.919C380.201 419.611 380.661 420.263 381.352 420.378C382.042 420.493 382.694 420.025 382.809 419.335C382.809 419.335 383.404 416.045 382.809 413.705C382.521 412.52 381.908 411.577 381.007 411.051C379.971 410.441 377.46 410.044 374.66 409.996C371.209 409.937 367.316 410.339 365.609 410.888C364.344 411.306 363.5 412.389 363.116 413.872C362.464 416.512 363.346 420.483 363.346 420.483C363.499 421.21 364.209 421.678 364.937 421.528C365.666 421.378 366.126 420.665 365.973 419.938ZM358.073 435.308C358.073 435.308 361.218 433.621 365.8 432.514C368.178 431.937 370.958 431.498 373.911 431.599C376.941 431.672 379.893 432.182 382.463 432.782C387.276 433.909 390.727 435.411 390.727 435.411C391.36 435.708 392.127 435.436 392.415 434.801C392.722 434.168 392.434 433.413 391.801 433.116C391.801 433.116 388.234 431.323 383.153 429.987C380.43 429.27 377.266 428.71 374.007 428.578C370.766 428.48 367.679 428.933 365.071 429.619C360.086 430.927 356.73 432.978 356.73 432.978C356.097 433.348 355.867 434.171 356.232 434.815C356.615 435.457 357.44 435.678 358.073 435.308ZM356.942 475.221C356.942 475.221 359.358 473.9 363.481 472.822C366.261 472.093 369.809 471.482 373.97 471.489C376.674 471.493 379.627 471.754 382.771 472.406C385.475 472.964 388.332 473.787 391.304 475.01C391.937 475.288 392.685 474.993 392.972 474.35C393.241 473.708 392.953 472.96 392.32 472.682C389.214 471.273 386.242 470.266 383.404 469.601C380.029 468.813 376.885 468.489 373.989 468.468C369.521 468.437 365.667 469.122 362.695 469.969C358.151 471.259 355.562 472.91 355.562 472.91C354.929 473.292 354.718 474.118 355.102 474.755C355.486 475.392 356.31 475.601 356.943 475.221H356.942ZM305.822 468.834C305.822 468.834 308.526 467.942 313.243 467.248C316.311 466.799 320.184 466.433 324.767 466.464C327.701 466.483 330.922 466.662 334.393 467.081C337.384 467.445 340.567 467.969 343.904 468.759C344.594 468.934 345.284 468.523 345.457 467.844C345.63 467.167 345.208 466.475 344.537 466.302C341.124 465.368 337.864 464.684 334.758 464.231C331.191 463.708 327.836 463.475 324.787 463.441C320.032 463.387 315.967 463.796 312.783 464.327C307.74 465.171 304.902 466.308 304.902 466.308C304.212 466.563 303.847 467.338 304.097 468.034C304.366 468.73 305.133 469.089 305.823 468.834H305.822ZM97.602 482.103C97.276 482.554 97.007 483.298 96.854 484.26C96.662 485.386 96.605 486.868 96.662 488.436C96.777 492.049 97.467 496.093 98.196 497.333C98.292 497.506 98.5221 497.841 99.0781 498.012C99.2891 498.075 99.749 498.154 100.44 498.215C102.262 498.378 106.058 498.537 111.485 498.685C131.657 499.23 174.474 499.665 221.28 499.866C283.867 500.136 353.605 500.004 385.973 499.406C393.988 499.258 399.721 499.078 402.502 498.869C403.729 498.777 404.496 498.637 404.765 498.533C407.507 497.453 408.638 494.525 408.619 491.112C408.581 487.952 407.622 484.416 406.663 482.238C406.145 481.057 405.57 480.232 405.167 479.883C405.052 479.795 404.784 479.58 404.246 479.496C403.939 479.448 403.345 479.4 402.424 479.358C399.682 479.235 393.93 479.139 385.876 479.074C353.471 478.813 283.578 479.001 220.857 479.482C173.955 479.841 131.061 480.368 110.851 480.945C105.405 481.1 101.609 481.261 99.787 481.422C99.116 481.481 98.675 481.554 98.464 481.614C97.985 481.75 97.774 482.009 97.659 482.147L97.602 482.101V482.103ZM403.402 482.446C403.555 482.688 403.709 483.04 403.9 483.455C404.724 485.342 405.568 488.4 405.587 491.138C405.606 493.146 405.28 495.036 403.708 495.7C403.612 495.713 403.21 495.775 402.864 495.807C401.042 495.976 397.303 496.123 391.992 496.254C371.782 496.751 329.022 496.969 282.274 496.994C219.687 497.027 149.949 496.701 117.658 496.068C109.662 495.911 103.986 495.74 101.264 495.546C100.919 495.523 100.593 495.489 100.324 495.458C99.902 494.271 99.595 491.984 99.442 489.702C99.308 488.018 99.308 486.333 99.461 485.054C99.519 484.634 99.557 484.268 99.634 483.992C99.845 483.969 100.075 483.944 100.305 483.927C102.548 483.749 107.285 483.584 113.977 483.428C140.036 482.816 195.719 482.375 251.442 482.128C307.126 481.884 362.829 481.84 388.906 482.117C395.598 482.188 400.315 482.276 402.597 482.391C402.885 482.406 403.191 482.428 403.402 482.446Z" fill="#050000"/>
</g>
<defs>
<radialGradient id="paint0_angular_87_2" cx="0" cy="0" r="1" gradientUnits="userSpaceOnUse" gradientTransform="translate(226.766 311.322) rotate(90) scale(162.737 119.602)">
<stop stop-color="#3A37EC"/>
<stop offset="1" stop-color="#DD3FEB"/>
</radialGradient>
<clipPath id="clip0_87_2">
<rect width="500" height="500" fill="white"/>
</clipPath>
</defs>
</svg>
